<svg width="118" height="38" viewBox="0 0 118 38" fill="none" xmlns="http://www.w3.org/2000/svg">
<path d="M11.7452 28.336C9.78521 28.336 8.09588 27.916 6.67721 27.076C5.27721 26.2173 4.19454 25.032 3.42921 23.52C2.68254 21.9893 2.30921 20.2253 2.30921 18.228C2.30921 16.2307 2.68254 14.4667 3.42921 12.936C4.19454 11.4053 5.27721 10.2107 6.67721 9.352C8.09588 8.49333 9.78521 8.064 11.7452 8.064C14.1159 8.064 16.0572 8.652 17.5692 9.828C19.0812 11.004 20.0239 12.6653 20.3972 14.812H16.2812C16.0385 13.7667 15.5252 12.9547 14.7412 12.376C13.9759 11.7787 12.9679 11.48 11.7172 11.48C10.5599 11.48 9.56121 11.76 8.72121 12.32C7.89988 12.8613 7.26521 13.636 6.81721 14.644C6.36921 15.6333 6.14521 16.828 6.14521 18.228C6.14521 19.6093 6.36921 20.804 6.81721 21.812C7.26521 22.82 7.89988 23.5947 8.72121 24.136C9.56121 24.6773 10.5599 24.948 11.7172 24.948C12.9679 24.948 13.9759 24.6773 14.7412 24.136C15.5065 23.576 16.0105 22.8013 16.2532 21.812H20.3972C20.0239 23.8467 19.0812 25.4427 17.5692 26.6C16.0572 27.7573 14.1159 28.336 11.7452 28.336Z" fill="white"/>
<path d="M26.5569 34.1587C25.8605 34.1587 25.2699 34.0309 24.7851 33.7752C24.3091 33.5196 23.9257 33.1758 23.6348 32.7439C23.3527 32.312 23.1455 31.8316 23.0133 31.3027C22.8899 30.765 22.8282 30.2229 22.8282 29.6763C22.8282 28.6362 22.9737 27.7371 23.2645 26.979C23.5554 26.2209 23.9741 25.6347 24.5207 25.2204C25.0672 24.7973 25.7283 24.5858 26.504 24.5858C27.1563 24.5858 27.7072 24.7136 28.1568 24.9692C28.6063 25.216 28.9545 25.5422 29.2013 25.9477C29.4481 26.3531 29.5936 26.7895 29.6377 27.2567H27.9717C27.9011 26.8688 27.7381 26.5735 27.4824 26.3708C27.2268 26.1592 26.8962 26.0534 26.4908 26.0534C26.1117 26.0534 25.7812 26.168 25.4991 26.3972C25.217 26.6264 24.9967 26.9702 24.838 27.4286C24.6881 27.8869 24.6 28.4643 24.5735 29.1607C24.5735 29.1695 24.5735 29.1827 24.5735 29.2003C24.5735 29.218 24.5735 29.2312 24.5735 29.24C24.7146 29.002 24.8997 28.7904 25.1289 28.6053C25.3581 28.4202 25.6225 28.2748 25.9222 28.169C26.2219 28.0632 26.5392 28.0103 26.8742 28.0103C27.3855 28.0103 27.8615 28.1337 28.3022 28.3806C28.7429 28.6274 29.0999 28.9756 29.3732 29.4251C29.6465 29.8747 29.7831 30.408 29.7831 31.025C29.7831 31.5803 29.6465 32.1004 29.3732 32.5852C29.1088 33.0612 28.7341 33.4447 28.2493 33.7356C27.7645 34.0176 27.2004 34.1587 26.5569 34.1587ZM26.4511 32.6249C26.7684 32.6249 27.0461 32.5588 27.2841 32.4266C27.5309 32.2943 27.7248 32.1136 27.8659 31.8844C28.0069 31.6464 28.0774 31.3776 28.0774 31.0779C28.0774 30.7606 28.0069 30.4873 27.8659 30.2581C27.7248 30.0289 27.5309 29.8482 27.2841 29.716C27.0373 29.5838 26.7552 29.5177 26.4379 29.5177C26.1294 29.5177 25.8517 29.5838 25.6049 29.716C25.3581 29.8482 25.1597 30.0333 25.0099 30.2713C24.8688 30.5005 24.7983 30.765 24.7983 31.0647C24.7983 31.3732 24.8688 31.6464 25.0099 31.8844C25.1597 32.1136 25.3581 32.2943 25.6049 32.4266C25.8605 32.5588 26.1426 32.6249 26.4511 32.6249Z" fill="white"/>
<path d="M41.6319 29.336C39.6719 29.336 37.9826 28.916 36.5639 28.076C35.1639 27.2173 34.0813 26.032 33.3159 24.52C32.5693 22.9893 32.1959 21.2253 32.1959 19.228C32.1959 17.2307 32.5693 15.4667 33.3159 13.936C34.0813 12.4053 35.1639 11.2107 36.5639 10.352C37.9826 9.49333 39.6719 9.064 41.6319 9.064C44.0026 9.064 45.9439 9.652 47.4559 10.828C48.9679 12.004 49.9106 13.6653 50.2839 15.812H46.1679C45.9253 14.7667 45.4119 13.9547 44.6279 13.376C43.8626 12.7787 42.8546 12.48 41.6039 12.48C40.4466 12.48 39.4479 12.76 38.6079 13.32C37.7866 13.8613 37.1519 14.636 36.7039 15.644C36.2559 16.6333 36.0319 17.828 36.0319 19.228C36.0319 20.6093 36.2559 21.804 36.7039 22.812C37.1519 23.82 37.7866 24.5947 38.6079 25.136C39.4479 25.6773 40.4466 25.948 41.6039 25.948C42.8546 25.948 43.8626 25.6773 44.6279 25.136C45.3933 24.576 45.8973 23.8013 46.1399 22.812H50.2839C49.9106 24.8467 48.9679 26.4427 47.4559 27.6C45.9439 28.7573 44.0026 29.336 41.6319 29.336ZM53.4278 29V14.888H56.7878L57.1518 17.492C57.4878 16.876 57.9078 16.3533 58.4118 15.924C58.9345 15.4947 59.5225 15.1587 60.1758 14.916C60.8478 14.6733 61.5851 14.552 62.3878 14.552V18.556H61.0998C60.5398 18.556 60.0171 18.6213 59.5318 18.752C59.0651 18.8827 58.6545 19.0973 58.2998 19.396C57.9451 19.676 57.6745 20.068 57.4878 20.572C57.3011 21.076 57.2078 21.7107 57.2078 22.476V29H53.4278ZM71.4421 29.336C70.0234 29.336 68.7634 29.0373 67.6621 28.44C66.5794 27.824 65.7301 26.9747 65.1141 25.892C64.5168 24.7907 64.2181 23.5213 64.2181 22.084C64.2181 20.6093 64.5168 19.312 65.1141 18.192C65.7301 17.0533 66.5794 16.1667 67.6621 15.532C68.7448 14.8787 70.0048 14.552 71.4421 14.552C72.8421 14.552 74.0648 14.86 75.1101 15.476C76.1554 16.092 76.9674 16.9227 77.5461 17.968C78.1248 19.0133 78.4141 20.1987 78.4141 21.524C78.4141 21.7107 78.4141 21.9253 78.4141 22.168C78.4141 22.392 78.3954 22.6253 78.3581 22.868H66.9061V20.572H74.6061C74.5501 19.6573 74.2234 18.9387 73.6261 18.416C73.0474 17.8933 72.3194 17.632 71.4421 17.632C70.8074 17.632 70.2194 17.7813 69.6781 18.08C69.1368 18.36 68.7074 18.7987 68.3901 19.396C68.0914 19.9933 67.9421 20.7493 67.9421 21.664V22.476C67.9421 23.2413 68.0821 23.9133 68.3621 24.492C68.6608 25.052 69.0714 25.4907 69.5941 25.808C70.1168 26.1067 70.7234 26.256 71.4141 26.256C72.1048 26.256 72.6741 26.1067 73.1221 25.808C73.5888 25.5093 73.9341 25.1267 74.1581 24.66H78.0221C77.7608 25.5373 77.3221 26.3307 76.7061 27.04C76.0901 27.7493 75.3341 28.3093 74.4381 28.72C73.5421 29.1307 72.5434 29.336 71.4421 29.336ZM87.7818 29.336C86.4938 29.336 85.3365 29.0187 84.3098 28.384C83.3018 27.7493 82.5085 26.872 81.9298 25.752C81.3512 24.632 81.0618 23.372 81.0618 21.972C81.0618 20.5347 81.3512 19.2653 81.9298 18.164C82.5272 17.044 83.3392 16.1667 84.3658 15.532C85.4112 14.8787 86.5778 14.552 87.8658 14.552C88.8738 14.552 89.7605 14.7387 90.5258 15.112C91.2912 15.4853 91.9072 16.0173 92.3738 16.708V8.84H96.1538V29H92.7938L92.3738 27.068C92.0938 27.46 91.7392 27.8333 91.3098 28.188C90.8992 28.5427 90.4045 28.8227 89.8258 29.028C89.2472 29.2333 88.5658 29.336 87.7818 29.336ZM88.6778 26.032C89.4245 26.032 90.0778 25.864 90.6378 25.528C91.2165 25.1733 91.6645 24.688 91.9818 24.072C92.2992 23.456 92.4578 22.7467 92.4578 21.944C92.4578 21.1413 92.2992 20.432 91.9818 19.816C91.6645 19.2 91.2165 18.724 90.6378 18.388C90.0778 18.0333 89.4245 17.856 88.6778 17.856C87.9685 17.856 87.3245 18.0333 86.7458 18.388C86.1672 18.724 85.7098 19.2 85.3738 19.816C85.0565 20.432 84.8978 21.132 84.8978 21.916C84.8978 22.7373 85.0565 23.456 85.3738 24.072C85.7098 24.688 86.1578 25.1733 86.7178 25.528C87.2965 25.864 87.9498 26.032 88.6778 26.032ZM99.9415 29V14.888H103.721V29H99.9415ZM101.845 12.956C101.173 12.956 100.613 12.76 100.165 12.368C99.7362 11.9573 99.5215 11.444 99.5215 10.828C99.5215 10.212 99.7362 9.708 100.165 9.316C100.613 8.90533 101.173 8.7 101.845 8.7C102.536 8.7 103.096 8.90533 103.525 9.316C103.973 9.708 104.197 10.212 104.197 10.828C104.197 11.444 103.973 11.9573 103.525 12.368C103.096 12.76 102.536 12.956 101.845 12.956ZM113.897 29C112.908 29 112.04 28.8507 111.293 28.552C110.565 28.2347 109.996 27.7213 109.585 27.012C109.174 26.284 108.969 25.2947 108.969 24.044V18.052H106.561V14.888H108.969L109.389 11.052H112.749V14.888H116.473V18.052H112.749V24.1C112.749 24.7347 112.889 25.1733 113.169 25.416C113.449 25.6587 113.925 25.78 114.597 25.78H116.445V29H113.897Z" fill="white"/>
</svg>
