<svg width="191" height="97" viewBox="0 0 191 97" fill="none" xmlns="http://www.w3.org/2000/svg">
<rect x="0.657783" y="0.657783" width="189.65" height="94.7257" rx="9.34222" fill="#05AA58" fill-opacity="0.09"/>
<rect x="0.657783" y="0.657783" width="189.65" height="94.7257" rx="9.34222" stroke="#05AA58" stroke-width="1.31557"/>
<path d="M29.8192 27.2398V18.9078C29.8192 17.9431 29.0298 17.1537 28.0651 17.1537H23.2414" stroke="#05AA58" stroke-width="1.31557" stroke-linecap="round" stroke-linejoin="round"/>
<path d="M25.4346 14.9611L22.8035 17.1537L25.4346 19.3463" stroke="#05AA58" stroke-width="1.31557" stroke-linecap="round" stroke-linejoin="round"/>
<path d="M29.8193 32.5023C31.2724 32.5023 32.4504 31.3243 32.4504 29.8711C32.4504 28.418 31.2724 27.24 29.8193 27.24C28.3662 27.24 27.1882 28.418 27.1882 29.8711C27.1882 31.3243 28.3662 32.5023 29.8193 32.5023Z" stroke="#05AA58" stroke-width="1.31557" stroke-linecap="round" stroke-linejoin="round"/>
<path d="M17.5409 20.2234V28.5554C17.5409 29.5201 18.3302 30.3095 19.295 30.3095H24.1187" stroke="#05AA58" stroke-width="1.31557" stroke-linecap="round" stroke-linejoin="round"/>
<path d="M21.9256 32.502L24.5567 30.3094L21.9256 28.1168" stroke="#05AA58" stroke-width="1.31557" stroke-linecap="round" stroke-linejoin="round"/>
<path d="M17.541 20.2234C18.9941 20.2234 20.1721 19.0454 20.1721 17.5923C20.1721 16.1391 18.9941 14.9611 17.541 14.9611C16.0878 14.9611 14.9098 16.1391 14.9098 17.5923C14.9098 19.0454 16.0878 20.2234 17.541 20.2234Z" stroke="#05AA58" stroke-width="1.31557" stroke-linecap="round" stroke-linejoin="round"/>
<path d="M17.8286 57.0235C17.0182 57.0235 16.313 56.8762 15.7131 56.5815C15.1238 56.2868 14.6712 55.8764 14.3555 55.3501C14.0397 54.8134 13.8819 54.203 13.8819 53.5189H15.0343C15.0343 53.982 15.1395 54.4082 15.35 54.7976C15.5605 55.187 15.871 55.5028 16.2814 55.7448C16.6919 55.9764 17.2076 56.0921 17.8286 56.0921C18.3758 56.0921 18.8336 56.0027 19.202 55.8238C19.5809 55.6343 19.8703 55.387 20.0703 55.0818C20.2702 54.7766 20.3702 54.4293 20.3702 54.0398C20.3702 53.5768 20.2702 53.2031 20.0703 52.919C19.8808 52.6348 19.6177 52.4033 19.2809 52.2244C18.9442 52.0454 18.56 51.8928 18.1285 51.7665C17.7075 51.6297 17.2602 51.4824 16.7866 51.3245C15.9341 51.0298 15.3079 50.6667 14.908 50.2352C14.5081 49.8037 14.3028 49.2512 14.2923 48.5776C14.2923 47.9988 14.4239 47.4883 14.687 47.0463C14.9606 46.5937 15.3553 46.2412 15.871 45.9886C16.3867 45.7255 16.9971 45.5939 17.7023 45.5939C18.3864 45.5939 18.981 45.7255 19.4862 45.9886C20.0019 46.2412 20.4018 46.599 20.686 47.0621C20.9701 47.5146 21.1122 48.0356 21.1122 48.625H19.9756C19.9756 48.2882 19.8861 47.9619 19.7072 47.6462C19.5388 47.3199 19.2809 47.0568 18.9336 46.8568C18.5968 46.6464 18.1653 46.5411 17.6391 46.5411C17.2076 46.5411 16.8235 46.62 16.4867 46.7779C16.1604 46.9253 15.9026 47.1463 15.7131 47.441C15.5237 47.7251 15.429 48.0619 15.429 48.4513C15.429 48.8302 15.5132 49.1407 15.6816 49.3827C15.8499 49.6248 16.0867 49.8248 16.392 49.9826C16.6972 50.1405 17.055 50.2878 17.4655 50.4247C17.8759 50.551 18.3337 50.6983 18.8389 50.8667C19.3546 51.0456 19.8124 51.2614 20.2124 51.514C20.6123 51.7665 20.928 52.0928 21.1596 52.4927C21.3911 52.8821 21.5069 53.3768 21.5069 53.9767C21.5069 54.4924 21.3701 54.9871 21.0964 55.4607C20.8333 55.9237 20.4281 56.3026 19.8808 56.5973C19.3336 56.8815 18.6495 57.0235 17.8286 57.0235ZM26.7824 57.0235C26.0457 57.0235 25.3931 56.8499 24.8248 56.5026C24.267 56.1553 23.825 55.6711 23.4987 55.0502C23.183 54.4187 23.0251 53.682 23.0251 52.84C23.0251 51.9981 23.183 51.2666 23.4987 50.6457C23.8145 50.0247 24.2565 49.5459 24.8248 49.2091C25.4037 48.8618 26.0667 48.6881 26.814 48.6881C27.5822 48.6881 28.2295 48.8618 28.7557 49.2091C29.2925 49.5564 29.6977 50.0089 29.9713 50.5667C30.2555 51.1245 30.3976 51.735 30.3976 52.398C30.3976 52.5033 30.3976 52.6138 30.3976 52.7295C30.3976 52.8348 30.3923 52.9611 30.3818 53.1084H23.8618V52.177H29.3241C29.303 51.3666 29.0504 50.7404 28.5663 50.2984C28.0927 49.8563 27.4928 49.6353 26.7666 49.6353C26.293 49.6353 25.851 49.7458 25.4405 49.9668C25.0406 50.1773 24.7143 50.4931 24.4617 50.9141C24.2197 51.3245 24.0986 51.8455 24.0986 52.4769V52.8874C24.0986 53.6031 24.2249 54.1977 24.4775 54.6713C24.7301 55.1449 25.0616 55.4975 25.4721 55.729C25.8931 55.9606 26.3298 56.0763 26.7824 56.0763C27.3823 56.0763 27.8769 55.9448 28.2663 55.6817C28.6557 55.408 28.9346 55.0344 29.103 54.5608H30.1923C30.0555 55.0239 29.8345 55.4449 29.5293 55.8238C29.2346 56.2026 28.8557 56.4973 28.3926 56.7078C27.9296 56.9183 27.3928 57.0235 26.7824 57.0235ZM35.7109 57.0235C34.9742 57.0235 34.3164 56.8499 33.7376 56.5026C33.1587 56.1553 32.7009 55.6711 32.3641 55.0502C32.0273 54.4187 31.8589 53.6925 31.8589 52.8716C31.8589 52.0191 32.0273 51.2877 32.3641 50.6773C32.7009 50.0563 33.1587 49.5722 33.7376 49.2249C34.327 48.867 34.9847 48.6881 35.7109 48.6881C36.6371 48.6881 37.4054 48.9302 38.0158 49.4143C38.6367 49.8879 39.0314 50.5194 39.1998 51.3087H38.0947C37.979 50.7825 37.7001 50.3773 37.258 50.0931C36.8265 49.7985 36.3056 49.6511 35.6951 49.6511C35.2215 49.6511 34.7795 49.7721 34.369 50.0142C33.9586 50.2457 33.6271 50.5983 33.3745 51.0719C33.1219 51.5455 32.9956 52.1454 32.9956 52.8716C32.9956 53.4084 33.0693 53.8767 33.2166 54.2766C33.364 54.6766 33.5639 55.0134 33.8165 55.287C34.0691 55.5501 34.3585 55.7501 34.6848 55.8869C35.011 56.0237 35.3478 56.0921 35.6951 56.0921C36.0951 56.0921 36.4582 56.029 36.7844 55.9027C37.1212 55.7659 37.4054 55.5712 37.6369 55.3186C37.8685 55.066 38.0211 54.7608 38.0947 54.4029H39.1998C39.0419 55.1712 38.6525 55.8027 38.0316 56.2974C37.4106 56.7815 36.6371 57.0235 35.7109 57.0235ZM43.9749 57.0235C43.375 57.0235 42.8436 56.9078 42.3805 56.6762C41.9279 56.4342 41.5754 56.0711 41.3228 55.5869C41.0702 55.0923 40.9439 54.4608 40.9439 53.6925V48.8776H42.049V53.5662C42.049 54.4082 42.2331 55.0344 42.6015 55.4449C42.9804 55.8553 43.5013 56.0606 44.1644 56.0606C44.638 56.0606 45.059 55.95 45.4273 55.729C45.8062 55.508 46.1009 55.1818 46.3114 54.7502C46.5324 54.3082 46.6429 53.7715 46.6429 53.14V48.8776H47.748V56.8341H46.7376L46.6745 55.4133C46.4219 55.929 46.0535 56.3289 45.5694 56.6131C45.0958 56.8867 44.5643 57.0235 43.9749 57.0235ZM49.9972 56.8341V48.8776H51.0076L51.0865 50.4089C51.2549 50.0405 51.4812 49.73 51.7654 49.4775C52.0495 49.2249 52.3916 49.0302 52.7915 48.8933C53.1914 48.7565 53.644 48.6881 54.1492 48.6881V49.8406H53.7229C53.3861 49.8406 53.0599 49.8879 52.7441 49.9826C52.4284 50.0668 52.1495 50.2142 51.9074 50.4247C51.6654 50.6352 51.4707 50.9193 51.3233 51.2772C51.176 51.635 51.1023 52.0823 51.1023 52.619V56.8341H49.9972ZM58.7722 57.0235C58.0355 57.0235 57.383 56.8499 56.8147 56.5026C56.2569 56.1553 55.8148 55.6711 55.4886 55.0502C55.1728 54.4187 55.015 53.682 55.015 52.84C55.015 51.9981 55.1728 51.2666 55.4886 50.6457C55.8043 50.0247 56.2463 49.5459 56.8147 49.2091C57.3935 48.8618 58.0566 48.6881 58.8038 48.6881C59.5721 48.6881 60.2194 48.8618 60.7456 49.2091C61.2823 49.5564 61.6875 50.0089 61.9612 50.5667C62.2453 51.1245 62.3874 51.735 62.3874 52.398C62.3874 52.5033 62.3874 52.6138 62.3874 52.7295C62.3874 52.8348 62.3821 52.9611 62.3716 53.1084H55.8517V52.177H61.3139C61.2929 51.3666 61.0403 50.7404 60.5561 50.2984C60.0825 49.8563 59.4826 49.6353 58.7564 49.6353C58.2828 49.6353 57.8408 49.7458 57.4304 49.9668C57.0304 50.1773 56.7042 50.4931 56.4516 50.9141C56.2095 51.3245 56.0885 51.8455 56.0885 52.4769V52.8874C56.0885 53.6031 56.2148 54.1977 56.4674 54.6713C56.7199 55.1449 57.0515 55.4975 57.4619 55.729C57.8829 55.9606 58.3197 56.0763 58.7722 56.0763C59.3721 56.0763 59.8668 55.9448 60.2562 55.6817C60.6456 55.408 60.9245 55.0344 61.0929 54.5608H62.1822C62.0454 55.0239 61.8243 55.4449 61.5191 55.8238C61.2244 56.2026 60.8456 56.4973 60.3825 56.7078C59.9194 56.9183 59.3827 57.0235 58.7722 57.0235ZM71.5589 56.8341C71.1064 56.8341 70.717 56.7657 70.3907 56.6289C70.0644 56.4815 69.8119 56.2447 69.6329 55.9185C69.4645 55.5817 69.3803 55.1239 69.3803 54.545V49.8248H67.9911V48.8776H69.3803L69.5382 47.0305H70.4854V48.8933H72.8692V49.8248H70.4854V54.545C70.4854 55.0712 70.5907 55.4291 70.8012 55.6185C71.0116 55.7974 71.3853 55.8869 71.922 55.8869H72.7429V56.8341H71.5589ZM74.587 56.8341V48.8776H75.5974L75.6763 50.4089C75.8447 50.0405 76.071 49.73 76.3551 49.4775C76.6393 49.2249 76.9814 49.0302 77.3813 48.8933C77.7812 48.7565 78.2338 48.6881 78.739 48.6881V49.8406H78.3127C77.9759 49.8406 77.6497 49.8879 77.3339 49.9826C77.0182 50.0668 76.7393 50.2142 76.4972 50.4247C76.2552 50.6352 76.0605 50.9193 75.9131 51.2772C75.7658 51.635 75.6921 52.0823 75.6921 52.619V56.8341H74.587ZM82.8329 57.0235C82.1909 57.0235 81.6542 56.9078 81.2227 56.6762C80.8017 56.4447 80.4859 56.1447 80.2755 55.7764C80.0755 55.408 79.9755 55.0028 79.9755 54.5608C79.9755 54.0135 80.1123 53.5505 80.386 53.1716C80.6701 52.7927 81.0648 52.5085 81.57 52.3191C82.0752 52.1296 82.6645 52.0349 83.3381 52.0349H85.4851C85.4851 51.5192 85.4062 51.0824 85.2483 50.7246C85.0904 50.3668 84.8589 50.0984 84.5537 49.9195C84.2485 49.73 83.8643 49.6353 83.4012 49.6353C82.8645 49.6353 82.4014 49.7721 82.012 50.0458C81.6226 50.3194 81.3805 50.7194 81.2858 51.2456H80.1334C80.1965 50.6878 80.386 50.2194 80.7017 49.8406C81.028 49.4617 81.4279 49.1775 81.9015 48.9881C82.3751 48.7881 82.875 48.6881 83.4012 48.6881C84.138 48.6881 84.7379 48.8302 85.2009 49.1144C85.664 49.388 86.0113 49.7669 86.2429 50.251C86.4744 50.7351 86.5902 51.2929 86.5902 51.9244V56.8341H85.5798L85.5167 55.3817C85.422 55.6027 85.2904 55.8132 85.122 56.0132C84.9641 56.2132 84.7747 56.3868 84.5537 56.5342C84.3432 56.6815 84.0959 56.7973 83.8117 56.8815C83.5275 56.9762 83.2013 57.0235 82.8329 57.0235ZM82.9592 56.0606C83.3486 56.0606 83.6959 55.9816 84.0011 55.8238C84.3169 55.6554 84.5853 55.4396 84.8063 55.1765C85.0273 54.9134 85.1957 54.6187 85.3114 54.2924C85.4272 53.9556 85.4851 53.6083 85.4851 53.2505V52.9663H83.417C82.8592 52.9663 82.4119 53.0348 82.0752 53.1716C81.7384 53.3084 81.4963 53.4926 81.349 53.7241C81.2016 53.9556 81.1279 54.224 81.1279 54.5292C81.1279 54.8344 81.1964 55.1028 81.3332 55.3344C81.47 55.5554 81.6752 55.7343 81.9489 55.8711C82.233 55.9974 82.5698 56.0606 82.9592 56.0606ZM92.1511 57.0235C91.3828 57.0235 90.7092 56.8446 90.1304 56.4868C89.562 56.1184 89.12 55.6185 88.8043 54.9871C88.4885 54.3556 88.3307 53.6399 88.3307 52.84C88.3307 52.0402 88.4885 51.3298 88.8043 50.7088C89.12 50.0774 89.5673 49.5827 90.1461 49.2249C90.725 48.867 91.3986 48.6881 92.1669 48.6881C92.8404 48.6881 93.4298 48.8355 93.935 49.1301C94.4507 49.4143 94.8454 49.8195 95.119 50.3457V45.4676H96.2241V56.8341H95.2137L95.119 55.3975C94.9506 55.6711 94.7296 55.9343 94.4559 56.1868C94.1928 56.4394 93.8666 56.6447 93.4772 56.8025C93.0983 56.9499 92.6562 57.0235 92.1511 57.0235ZM92.2458 56.0606C92.8036 56.0606 93.2877 55.929 93.6982 55.6659C94.1192 55.4028 94.4454 55.0291 94.677 54.545C94.919 54.0609 95.0401 53.4978 95.0401 52.8558C95.0401 52.2138 94.919 51.6508 94.677 51.1666C94.4454 50.6825 94.1192 50.3089 93.6982 50.0458C93.2877 49.7827 92.8036 49.6511 92.2458 49.6511C91.6985 49.6511 91.2144 49.7827 90.7934 50.0458C90.3724 50.3089 90.0409 50.6825 89.7988 51.1666C89.5673 51.6402 89.4515 52.2033 89.4515 52.8558C89.4515 53.5084 89.5726 54.0767 89.8146 54.5608C90.0567 55.0344 90.3882 55.4028 90.8092 55.6659C91.2302 55.929 91.709 56.0606 92.2458 56.0606ZM101.878 57.0235C101.141 57.0235 100.488 56.8499 99.92 56.5026C99.3622 56.1553 98.9202 55.6711 98.5939 55.0502C98.2782 54.4187 98.1203 53.682 98.1203 52.84C98.1203 51.9981 98.2782 51.2666 98.5939 50.6457C98.9097 50.0247 99.3517 49.5459 99.92 49.2091C100.499 48.8618 101.162 48.6881 101.909 48.6881C102.677 48.6881 103.325 48.8618 103.851 49.2091C104.388 49.5564 104.793 50.0089 105.067 50.5667C105.351 51.1245 105.493 51.735 105.493 52.398C105.493 52.5033 105.493 52.6138 105.493 52.7295C105.493 52.8348 105.488 52.9611 105.477 53.1084H98.957V52.177H104.419C104.398 51.3666 104.146 50.7404 103.661 50.2984C103.188 49.8563 102.588 49.6353 101.862 49.6353C101.388 49.6353 100.946 49.7458 100.536 49.9668C100.136 50.1773 99.8095 50.4931 99.5569 50.9141C99.3149 51.3245 99.1938 51.8455 99.1938 52.4769V52.8874C99.1938 53.6031 99.3201 54.1977 99.5727 54.6713C99.8253 55.1449 100.157 55.4975 100.567 55.729C100.988 55.9606 101.425 56.0763 101.878 56.0763C102.477 56.0763 102.972 55.9448 103.362 55.6817C103.751 55.408 104.03 55.0344 104.198 54.5608H105.288C105.151 55.0239 104.93 55.4449 104.624 55.8238C104.33 56.2026 103.951 56.4973 103.488 56.7078C103.025 56.9183 102.488 57.0235 101.878 57.0235ZM110.222 57.0235C109.591 57.0235 109.033 56.9183 108.549 56.7078C108.075 56.4973 107.691 56.1974 107.396 55.808C107.112 55.408 106.938 54.9344 106.875 54.3872H108.012C108.075 54.6924 108.196 54.9713 108.375 55.2239C108.564 55.4764 108.817 55.6817 109.133 55.8395C109.448 55.9869 109.822 56.0606 110.254 56.0606C110.654 56.0606 110.98 56.0027 111.232 55.8869C111.495 55.7606 111.69 55.5975 111.816 55.3975C111.953 55.187 112.022 54.9555 112.022 54.7029C112.022 54.3556 111.938 54.0872 111.769 53.8978C111.611 53.6978 111.38 53.5505 111.075 53.4557C110.769 53.361 110.401 53.2716 109.969 53.1874C109.612 53.1242 109.27 53.04 108.943 52.9348C108.617 52.8295 108.322 52.6927 108.059 52.5243C107.807 52.3559 107.607 52.1454 107.459 51.8928C107.312 51.6297 107.238 51.3245 107.238 50.9772C107.238 50.5246 107.349 50.13 107.57 49.7932C107.801 49.4459 108.128 49.1775 108.549 48.9881C108.97 48.7881 109.464 48.6881 110.033 48.6881C110.843 48.6881 111.506 48.8933 112.022 49.3038C112.537 49.7037 112.837 50.2931 112.922 51.0719H111.816C111.774 50.6404 111.595 50.2984 111.28 50.0458C110.964 49.7932 110.538 49.6669 110.001 49.6669C109.475 49.6669 109.07 49.7774 108.785 49.9984C108.512 50.2089 108.375 50.4983 108.375 50.8667C108.375 51.0982 108.449 51.2982 108.596 51.4666C108.743 51.635 108.959 51.7823 109.243 51.9086C109.538 52.0244 109.896 52.1244 110.317 52.2086C110.822 52.3033 111.285 52.4296 111.706 52.5875C112.137 52.7348 112.485 52.9663 112.748 53.2821C113.022 53.5873 113.158 54.0241 113.158 54.5924C113.169 55.066 113.053 55.487 112.811 55.8553C112.569 56.2237 112.227 56.5131 111.785 56.7236C111.343 56.9236 110.822 57.0235 110.222 57.0235ZM122.007 57.0235C121.365 57.0235 120.828 56.9078 120.397 56.6762C119.976 56.4447 119.66 56.1447 119.45 55.7764C119.25 55.408 119.15 55.0028 119.15 54.5608C119.15 54.0135 119.286 53.5505 119.56 53.1716C119.844 52.7927 120.239 52.5085 120.744 52.3191C121.249 52.1296 121.839 52.0349 122.512 52.0349H124.659C124.659 51.5192 124.58 51.0824 124.422 50.7246C124.265 50.3668 124.033 50.0984 123.728 49.9195C123.423 49.73 123.038 49.6353 122.575 49.6353C122.039 49.6353 121.575 49.7721 121.186 50.0458C120.797 50.3194 120.555 50.7194 120.46 51.2456H119.307C119.371 50.6878 119.56 50.2194 119.876 49.8406C120.202 49.4617 120.602 49.1775 121.076 48.9881C121.549 48.7881 122.049 48.6881 122.575 48.6881C123.312 48.6881 123.912 48.8302 124.375 49.1144C124.838 49.388 125.185 49.7669 125.417 50.251C125.648 50.7351 125.764 51.2929 125.764 51.9244V56.8341H124.754L124.691 55.3817C124.596 55.6027 124.464 55.8132 124.296 56.0132C124.138 56.2132 123.949 56.3868 123.728 56.5342C123.517 56.6815 123.27 56.7973 122.986 56.8815C122.702 56.9762 122.375 57.0235 122.007 57.0235ZM122.133 56.0606C122.523 56.0606 122.87 55.9816 123.175 55.8238C123.491 55.6554 123.759 55.4396 123.98 55.1765C124.201 54.9134 124.37 54.6187 124.486 54.2924C124.601 53.9556 124.659 53.6083 124.659 53.2505V52.9663H122.591C122.033 52.9663 121.586 53.0348 121.249 53.1716C120.912 53.3084 120.67 53.4926 120.523 53.7241C120.376 53.9556 120.302 54.224 120.302 54.5292C120.302 54.8344 120.37 55.1028 120.507 55.3344C120.644 55.5554 120.849 55.7343 121.123 55.8711C121.407 55.9974 121.744 56.0606 122.133 56.0606ZM131.357 57.0235C130.62 57.0235 129.962 56.8499 129.383 56.5026C128.805 56.1553 128.347 55.6711 128.01 55.0502C127.673 54.4187 127.505 53.6925 127.505 52.8716C127.505 52.0191 127.673 51.2877 128.01 50.6773C128.347 50.0563 128.805 49.5722 129.383 49.2249C129.973 48.867 130.631 48.6881 131.357 48.6881C132.283 48.6881 133.051 48.9302 133.662 49.4143C134.283 49.8879 134.677 50.5194 134.846 51.3087H133.741C133.625 50.7825 133.346 50.3773 132.904 50.0931C132.472 49.7985 131.951 49.6511 131.341 49.6511C130.867 49.6511 130.425 49.7721 130.015 50.0142C129.604 50.2457 129.273 50.5983 129.02 51.0719C128.768 51.5455 128.641 52.1454 128.641 52.8716C128.641 53.4084 128.715 53.8767 128.862 54.2766C129.01 54.6766 129.21 55.0134 129.462 55.287C129.715 55.5501 130.004 55.7501 130.331 55.8869C130.657 56.0237 130.994 56.0921 131.341 56.0921C131.741 56.0921 132.104 56.029 132.43 55.9027C132.767 55.7659 133.051 55.5712 133.283 55.3186C133.514 55.066 133.667 54.7608 133.741 54.4029H134.846C134.688 55.1712 134.298 55.8027 133.677 56.2974C133.056 56.7815 132.283 57.0235 131.357 57.0235ZM136.748 56.8341V48.8776H137.758L137.837 50.4089C138.005 50.0405 138.232 49.73 138.516 49.4775C138.8 49.2249 139.142 49.0302 139.542 48.8933C139.942 48.7565 140.394 48.6881 140.899 48.6881V49.8406H140.473C140.136 49.8406 139.81 49.8879 139.494 49.9826C139.179 50.0668 138.9 50.2142 138.658 50.4247C138.416 50.6352 138.221 50.9193 138.074 51.2772C137.926 51.635 137.853 52.0823 137.853 52.619V56.8341H136.748ZM145.617 57.0235C144.891 57.0235 144.233 56.8552 143.644 56.5184C143.065 56.1711 142.607 55.6869 142.27 55.066C141.934 54.4345 141.765 53.7031 141.765 52.8716C141.765 52.0086 141.934 51.2666 142.27 50.6457C142.618 50.0247 143.086 49.5459 143.675 49.2091C144.265 48.8618 144.923 48.6881 145.649 48.6881C146.407 48.6881 147.075 48.8618 147.654 49.2091C148.233 49.5459 148.69 50.0247 149.027 50.6457C149.364 51.2666 149.532 52.0086 149.532 52.8716C149.532 53.7031 149.359 54.4345 149.011 55.066C148.675 55.6869 148.212 56.1711 147.622 56.5184C147.043 56.8552 146.375 57.0235 145.617 57.0235ZM145.633 56.0763C146.128 56.0763 146.58 55.9553 146.991 55.7132C147.412 55.4712 147.748 55.1133 148.001 54.6397C148.264 54.1556 148.396 53.561 148.396 52.8558C148.396 52.1402 148.269 51.5455 148.017 51.0719C147.764 50.5983 147.427 50.2457 147.007 50.0142C146.596 49.7721 146.143 49.6511 145.649 49.6511C145.175 49.6511 144.728 49.7721 144.307 50.0142C143.886 50.2563 143.544 50.6141 143.281 51.0877C143.028 51.5508 142.902 52.1402 142.902 52.8558C142.902 53.561 143.028 54.1556 143.281 54.6397C143.533 55.1133 143.865 55.4712 144.275 55.7132C144.696 55.9553 145.149 56.0763 145.633 56.0763ZM154.345 57.0235C153.713 57.0235 153.156 56.9183 152.671 56.7078C152.198 56.4973 151.814 56.1974 151.519 55.808C151.235 55.408 151.061 54.9344 150.998 54.3872H152.135C152.198 54.6924 152.319 54.9713 152.498 55.2239C152.687 55.4764 152.94 55.6817 153.256 55.8395C153.571 55.9869 153.945 56.0606 154.376 56.0606C154.776 56.0606 155.103 56.0027 155.355 55.8869C155.618 55.7606 155.813 55.5975 155.939 55.3975C156.076 55.187 156.145 54.9555 156.145 54.7029C156.145 54.3556 156.06 54.0872 155.892 53.8978C155.734 53.6978 155.503 53.5505 155.197 53.4557C154.892 53.361 154.524 53.2716 154.092 53.1874C153.734 53.1242 153.392 53.04 153.066 52.9348C152.74 52.8295 152.445 52.6927 152.182 52.5243C151.93 52.3559 151.73 52.1454 151.582 51.8928C151.435 51.6297 151.361 51.3245 151.361 50.9772C151.361 50.5246 151.472 50.13 151.693 49.7932C151.924 49.4459 152.251 49.1775 152.671 48.9881C153.092 48.7881 153.587 48.6881 154.155 48.6881C154.966 48.6881 155.629 48.8933 156.145 49.3038C156.66 49.7037 156.96 50.2931 157.044 51.0719H155.939C155.897 50.6404 155.718 50.2984 155.403 50.0458C155.087 49.7932 154.661 49.6669 154.124 49.6669C153.598 49.6669 153.192 49.7774 152.908 49.9984C152.635 50.2089 152.498 50.4983 152.498 50.8667C152.498 51.0982 152.572 51.2982 152.719 51.4666C152.866 51.635 153.082 51.7823 153.366 51.9086C153.661 52.0244 154.019 52.1244 154.44 52.2086C154.945 52.3033 155.408 52.4296 155.829 52.5875C156.26 52.7348 156.608 52.9663 156.871 53.2821C157.144 53.5873 157.281 54.0241 157.281 54.5924C157.292 55.066 157.176 55.487 156.934 55.8553C156.692 56.2237 156.35 56.5131 155.908 56.7236C155.466 56.9236 154.945 57.0235 154.345 57.0235ZM162.161 57.0235C161.53 57.0235 160.972 56.9183 160.488 56.7078C160.014 56.4973 159.63 56.1974 159.335 55.808C159.051 55.408 158.878 54.9344 158.814 54.3872H159.951C160.014 54.6924 160.135 54.9713 160.314 55.2239C160.504 55.4764 160.756 55.6817 161.072 55.8395C161.388 55.9869 161.761 56.0606 162.193 56.0606C162.593 56.0606 162.919 56.0027 163.172 55.8869C163.435 55.7606 163.629 55.5975 163.756 55.3975C163.892 55.187 163.961 54.9555 163.961 54.7029C163.961 54.3556 163.877 54.0872 163.708 53.8978C163.55 53.6978 163.319 53.5505 163.014 53.4557C162.708 53.361 162.34 53.2716 161.909 53.1874C161.551 53.1242 161.209 53.04 160.882 52.9348C160.556 52.8295 160.262 52.6927 159.998 52.5243C159.746 52.3559 159.546 52.1454 159.399 51.8928C159.251 51.6297 159.178 51.3245 159.178 50.9772C159.178 50.5246 159.288 50.13 159.509 49.7932C159.741 49.4459 160.067 49.1775 160.488 48.9881C160.909 48.7881 161.403 48.6881 161.972 48.6881C162.782 48.6881 163.445 48.8933 163.961 49.3038C164.477 49.7037 164.777 50.2931 164.861 51.0719H163.756C163.714 50.6404 163.535 50.2984 163.219 50.0458C162.903 49.7932 162.477 49.6669 161.94 49.6669C161.414 49.6669 161.009 49.7774 160.725 49.9984C160.451 50.2089 160.314 50.4983 160.314 50.8667C160.314 51.0982 160.388 51.2982 160.535 51.4666C160.683 51.635 160.898 51.7823 161.182 51.9086C161.477 52.0244 161.835 52.1244 162.256 52.2086C162.761 52.3033 163.224 52.4296 163.645 52.5875C164.077 52.7348 164.424 52.9663 164.687 53.2821C164.961 53.5873 165.098 54.0241 165.098 54.5924C165.108 55.066 164.992 55.487 164.75 55.8553C164.508 56.2237 164.166 56.5131 163.724 56.7236C163.282 56.9236 162.761 57.0235 162.161 57.0235ZM18.3337 78.0235C17.8707 78.0235 17.4444 77.9551 17.055 77.8183C16.6761 77.671 16.3446 77.4763 16.0604 77.2342C15.7763 76.9816 15.55 76.6975 15.3816 76.3817L15.2869 77.8341H14.2765V66.4676H15.3816V71.3142C15.6447 70.8616 16.0236 70.4775 16.5183 70.1617C17.0129 69.846 17.6181 69.6881 18.3337 69.6881C19.1125 69.6881 19.7914 69.8723 20.3702 70.2407C20.9491 70.5985 21.3911 71.0931 21.6963 71.7246C22.0121 72.3456 22.1699 73.056 22.1699 73.8558C22.1699 74.6557 22.0121 75.3714 21.6963 76.0028C21.3806 76.6343 20.9333 77.129 20.3544 77.4868C19.7861 77.8446 19.1125 78.0235 18.3337 78.0235ZM18.2548 77.0606C18.8126 77.0606 19.2967 76.929 19.7072 76.6659C20.1176 76.4028 20.4439 76.0291 20.686 75.545C20.928 75.0609 21.0491 74.4978 21.0491 73.8558C21.0491 73.2033 20.928 72.6402 20.686 72.1666C20.4439 71.6825 20.1124 71.3089 19.6914 71.0458C19.2809 70.7827 18.8021 70.6511 18.2548 70.6511C17.7075 70.6511 17.2181 70.7827 16.7866 71.0458C16.3656 71.3089 16.0341 71.6825 15.7921 72.1666C15.5605 72.6508 15.4447 73.2138 15.4447 73.8558C15.4447 74.5084 15.5605 75.0767 15.7921 75.5608C16.0341 76.0344 16.3656 76.4028 16.7866 76.6659C17.2181 76.929 17.7075 77.0606 18.2548 77.0606ZM24.0662 77.8341V66.4676H25.1713V77.8341H24.0662ZM30.9163 78.0235C30.1901 78.0235 29.5323 77.8552 28.943 77.5184C28.3641 77.1711 27.9063 76.6869 27.5695 76.066C27.2327 75.4345 27.0643 74.7031 27.0643 73.8716C27.0643 73.0086 27.2327 72.2666 27.5695 71.6457C27.9168 71.0247 28.3852 70.5459 28.9745 70.2091C29.5639 69.8618 30.2217 69.6881 30.9479 69.6881C31.7056 69.6881 32.374 69.8618 32.9528 70.2091C33.5317 70.5459 33.9895 71.0247 34.3263 71.6457C34.663 72.2666 34.8314 73.0086 34.8314 73.8716C34.8314 74.7031 34.6578 75.4345 34.3105 76.066C33.9737 76.6869 33.5106 77.1711 32.9212 77.5184C32.3424 77.8552 31.6741 78.0235 30.9163 78.0235ZM30.9321 77.0763C31.4267 77.0763 31.8793 76.9553 32.2898 76.7132C32.7107 76.4712 33.0475 76.1133 33.3001 75.6397C33.5632 75.1556 33.6948 74.561 33.6948 73.8558C33.6948 73.1402 33.5685 72.5455 33.3159 72.0719C33.0633 71.5983 32.7265 71.2457 32.3055 71.0142C31.8951 70.7721 31.4425 70.6511 30.9479 70.6511C30.4743 70.6511 30.027 70.7721 29.606 71.0142C29.185 71.2563 28.843 71.6141 28.5799 72.0877C28.3273 72.5508 28.201 73.1402 28.201 73.8558C28.201 74.561 28.3273 75.1556 28.5799 75.6397C28.8324 76.1133 29.164 76.4712 29.5744 76.7132C29.9954 76.9553 30.448 77.0763 30.9321 77.0763ZM40.228 78.0235C39.4913 78.0235 38.8335 77.8499 38.2547 77.5026C37.6758 77.1553 37.218 76.6711 36.8812 76.0502C36.5445 75.4187 36.3761 74.6925 36.3761 73.8716C36.3761 73.0191 36.5445 72.2877 36.8812 71.6773C37.218 71.0563 37.6758 70.5722 38.2547 70.2249C38.8441 69.867 39.5019 69.6881 40.228 69.6881C41.1542 69.6881 41.9225 69.9302 42.5329 70.4143C43.1539 70.8879 43.5485 71.5194 43.7169 72.3087H42.6119C42.4961 71.7825 42.2172 71.3773 41.7752 71.0931C41.3436 70.7985 40.8227 70.6511 40.2123 70.6511C39.7387 70.6511 39.2966 70.7721 38.8862 71.0142C38.4757 71.2457 38.1442 71.5983 37.8916 72.0719C37.639 72.5455 37.5127 73.1454 37.5127 73.8716C37.5127 74.4084 37.5864 74.8767 37.7337 75.2766C37.8811 75.6766 38.081 76.0134 38.3336 76.287C38.5862 76.5501 38.8756 76.7501 39.2019 76.8869C39.5282 77.0237 39.865 77.0921 40.2123 77.0921C40.6122 77.0921 40.9753 77.029 41.3016 76.9027C41.6383 76.7659 41.9225 76.5712 42.154 76.3186C42.3856 76.066 42.5382 75.7608 42.6119 75.4029H43.7169C43.5591 76.1712 43.1697 76.8027 42.5487 77.2974C41.9278 77.7815 41.1542 78.0235 40.228 78.0235ZM50.4338 77.8341L46.5345 73.4769L50.1023 69.8776H51.4758L47.5133 73.84L47.5291 73.0981L51.8547 77.8341H50.4338ZM45.6189 77.8341V66.4676H46.7239V77.8341H45.6189ZM56.2461 78.0235C55.5094 78.0235 54.8516 77.8499 54.2727 77.5026C53.6939 77.1553 53.2361 76.6711 52.8993 76.0502C52.5625 75.4187 52.3941 74.6925 52.3941 73.8716C52.3941 73.0191 52.5625 72.2877 52.8993 71.6773C53.2361 71.0563 53.6939 70.5722 54.2727 70.2249C54.8621 69.867 55.5199 69.6881 56.2461 69.6881C57.1723 69.6881 57.9405 69.9302 58.551 70.4143C59.1719 70.8879 59.5666 71.5194 59.735 72.3087H58.6299C58.5141 71.7825 58.2352 71.3773 57.7932 71.0931C57.3617 70.7985 56.8407 70.6511 56.2303 70.6511C55.7567 70.6511 55.3147 70.7721 54.9042 71.0142C54.4938 71.2457 54.1622 71.5983 53.9097 72.0719C53.6571 72.5455 53.5308 73.1454 53.5308 73.8716C53.5308 74.4084 53.6044 74.8767 53.7518 75.2766C53.8991 75.6766 54.0991 76.0134 54.3517 76.287C54.6043 76.5501 54.8937 76.7501 55.22 76.8869C55.5462 77.0237 55.883 77.0921 56.2303 77.0921C56.6302 77.0921 56.9933 77.029 57.3196 76.9027C57.6564 76.7659 57.9405 76.5712 58.1721 76.3186C58.4036 76.066 58.5562 75.7608 58.6299 75.4029H59.735C59.5771 76.1712 59.1877 76.8027 58.5668 77.2974C57.9458 77.7815 57.1723 78.0235 56.2461 78.0235ZM61.6369 77.8341V66.4676H62.742V71.2984C63.0156 70.7932 63.3945 70.3985 63.8786 70.1144C64.3628 69.8302 64.8943 69.6881 65.4731 69.6881C66.073 69.6881 66.594 69.8092 67.036 70.0512C67.4886 70.2933 67.8359 70.6616 68.0779 71.1563C68.3305 71.6509 68.4568 72.2824 68.4568 73.0507V77.8341H67.3675V73.177C67.3675 72.3245 67.1886 71.693 66.8308 71.2826C66.4835 70.8616 65.9678 70.6511 65.2837 70.6511C64.8101 70.6511 64.3786 70.7669 63.9892 70.9984C63.6103 71.23 63.3051 71.5667 63.0735 72.0088C62.8525 72.4403 62.742 72.977 62.742 73.619V77.8341H61.6369ZM73.0895 78.0235C72.4475 78.0235 71.9108 77.9078 71.4792 77.6762C71.0583 77.4447 70.7425 77.1447 70.532 76.7764C70.3321 76.408 70.2321 76.0028 70.2321 75.5608C70.2321 75.0135 70.3689 74.5505 70.6425 74.1716C70.9267 73.7927 71.3214 73.5085 71.8266 73.3191C72.3317 73.1296 72.9211 73.0349 73.5947 73.0349H75.7417C75.7417 72.5192 75.6627 72.0824 75.5049 71.7246C75.347 71.3668 75.1155 71.0984 74.8103 70.9195C74.5051 70.73 74.1209 70.6353 73.6578 70.6353C73.1211 70.6353 72.658 70.7721 72.2686 71.0458C71.8792 71.3194 71.6371 71.7194 71.5424 72.2456H70.39C70.4531 71.6878 70.6425 71.2194 70.9583 70.8406C71.2845 70.4617 71.6845 70.1775 72.1581 69.9881C72.6317 69.7881 73.1316 69.6881 73.6578 69.6881C74.3945 69.6881 74.9944 69.8302 75.4575 70.1144C75.9206 70.388 76.2679 70.7669 76.4994 71.251C76.731 71.7351 76.8468 72.2929 76.8468 72.9244V77.8341H75.8364L75.7733 76.3817C75.6785 76.6027 75.547 76.8132 75.3786 77.0132C75.2207 77.2132 75.0313 77.3868 74.8103 77.5342C74.5998 77.6815 74.3524 77.7973 74.0683 77.8815C73.7841 77.9762 73.4579 78.0235 73.0895 78.0235ZM73.2158 77.0606C73.6052 77.0606 73.9525 76.9816 74.2577 76.8238C74.5735 76.6554 74.8418 76.4396 75.0629 76.1765C75.2839 75.9134 75.4523 75.6187 75.568 75.2924C75.6838 74.9556 75.7417 74.6083 75.7417 74.2505V73.9663H73.6736C73.1158 73.9663 72.6685 74.0348 72.3317 74.1716C71.9949 74.3084 71.7529 74.4926 71.6055 74.7241C71.4582 74.9556 71.3845 75.224 71.3845 75.5292C71.3845 75.8344 71.4529 76.1028 71.5898 76.3344C71.7266 76.5554 71.9318 76.7343 72.2054 76.8711C72.4896 76.9974 72.8264 77.0606 73.2158 77.0606ZM79.0924 77.8341V69.8776H80.1817V77.8341H79.0924ZM79.645 67.9989C79.424 67.9989 79.2345 67.9253 79.0766 67.7779C78.9188 67.62 78.8398 67.4253 78.8398 67.1938C78.8398 66.9517 78.9135 66.7623 79.0609 66.6255C79.2187 66.4781 79.4082 66.4045 79.6292 66.4045C79.8502 66.4045 80.0396 66.4781 80.1975 66.6255C80.3554 66.7623 80.4343 66.9517 80.4343 67.1938C80.4343 67.4253 80.3554 67.62 80.1975 67.7779C80.0502 67.9253 79.866 67.9989 79.645 67.9989ZM82.5883 77.8341V69.8776H83.5987L83.6618 71.2984C83.9144 70.7932 84.2775 70.3985 84.7511 70.1144C85.2353 69.8302 85.772 69.6881 86.3614 69.6881C86.9718 69.6881 87.5033 69.8092 87.9559 70.0512C88.4084 70.2933 88.761 70.6616 89.0136 71.1563C89.2662 71.6404 89.3925 72.2614 89.3925 73.0191V77.8341H88.2874V73.1454C88.2874 72.3035 88.1032 71.6773 87.7348 71.2668C87.3665 70.8563 86.8403 70.6511 86.1562 70.6511C85.6931 70.6511 85.2721 70.7669 84.8932 70.9984C84.5249 71.2194 84.2302 71.5457 84.0092 71.9772C83.7987 72.4087 83.6934 72.9402 83.6934 73.5717V77.8341H82.5883ZM94.4044 78.0235C93.7729 78.0235 93.2151 77.9183 92.731 77.7078C92.2574 77.4973 91.8732 77.1974 91.5786 76.808C91.2944 76.408 91.1207 75.9344 91.0576 75.3872H92.1942C92.2574 75.6924 92.3784 75.9713 92.5573 76.2239C92.7468 76.4764 92.9994 76.6817 93.3151 76.8395C93.6308 76.9869 94.0045 77.0606 94.436 77.0606C94.8359 77.0606 95.1622 77.0027 95.4148 76.8869C95.6779 76.7606 95.8726 76.5975 95.9989 76.3975C96.1357 76.187 96.2041 75.9555 96.2041 75.7029C96.2041 75.3556 96.1199 75.0872 95.9515 74.8978C95.7936 74.6978 95.5621 74.5505 95.2569 74.4557C94.9517 74.361 94.5833 74.2716 94.1518 74.1874C93.794 74.1242 93.4519 74.04 93.1257 73.9348C92.7994 73.8295 92.5047 73.6927 92.2416 73.5243C91.989 73.3559 91.7891 73.1454 91.6417 72.8928C91.4944 72.6297 91.4207 72.3245 91.4207 71.9772C91.4207 71.5246 91.5312 71.13 91.7522 70.7932C91.9838 70.4459 92.31 70.1775 92.731 69.9881C93.152 69.7881 93.6466 69.6881 94.215 69.6881C95.0253 69.6881 95.6884 69.8933 96.2041 70.3038C96.7198 70.7037 97.0197 71.2931 97.1039 72.0719H95.9989C95.9568 71.6404 95.7778 71.2984 95.4621 71.0458C95.1464 70.7932 94.7201 70.6669 94.1834 70.6669C93.6572 70.6669 93.252 70.7774 92.9678 70.9984C92.6942 71.2089 92.5573 71.4983 92.5573 71.8667C92.5573 72.0982 92.631 72.2982 92.7784 72.4666C92.9257 72.635 93.1415 72.7823 93.4256 72.9086C93.7203 73.0244 94.0781 73.1244 94.4991 73.2086C95.0043 73.3033 95.4674 73.4296 95.8884 73.5875C96.3199 73.7348 96.6672 73.9663 96.9303 74.2821C97.2039 74.5873 97.3407 75.0241 97.3407 75.5924C97.3513 76.066 97.2355 76.487 96.9934 76.8553C96.7514 77.2237 96.4093 77.5131 95.9673 77.7236C95.5253 77.9236 95.0043 78.0235 94.4044 78.0235ZM99.6632 77.913C99.4317 77.913 99.237 77.8341 99.0791 77.6762C98.9318 77.5184 98.8581 77.3237 98.8581 77.0921C98.8581 76.8606 98.9318 76.6711 99.0791 76.5238C99.237 76.3659 99.4317 76.287 99.6632 76.287C99.8948 76.287 100.084 76.3659 100.232 76.5238C100.389 76.6711 100.468 76.8658 100.468 77.1079C100.468 77.3289 100.389 77.5184 100.232 77.6762C100.084 77.8341 99.8948 77.913 99.6632 77.913Z" fill="black"/>
</svg>
