<svg width="191" height="97" viewBox="0 0 191 97" fill="none" xmlns="http://www.w3.org/2000/svg">
<rect x="0.779289" y="0.657661" width="189.442" height="94.7208" rx="9.34222" fill="#05AA58" fill-opacity="0.09"/>
<rect x="0.779289" y="0.657661" width="189.442" height="94.7208" rx="9.34222" stroke="#05AA58" stroke-width="1.31557"/>
<path fill-rule="evenodd" clip-rule="evenodd" d="M15.34 26.6763C15.7033 26.6763 15.9978 26.9708 15.9978 27.3341C15.9978 28.352 16.9646 29.2548 18.4799 29.2548C19.9835 29.2548 20.9532 28.3456 20.9532 27.3341C20.9532 26.9708 21.2477 26.6763 21.6109 26.6763C21.9742 26.6763 22.2687 26.9708 22.2687 27.3341V29.1145C22.2687 31.0691 20.4822 32.4999 18.4799 32.4999C16.4801 32.4999 14.6823 31.0713 14.6823 29.1145V27.3341C14.6823 26.9708 14.9768 26.6763 15.34 26.6763ZM16.2202 29.9614C16.5976 30.6555 17.4263 31.1844 18.4799 31.1844C19.5341 31.1844 20.3604 30.6542 20.7346 29.9575C20.0859 30.3539 19.2929 30.5704 18.4799 30.5704C17.6648 30.5704 16.8701 30.356 16.2202 29.9614Z" fill="#05AA58"/>
<path fill-rule="evenodd" clip-rule="evenodd" d="M18.4607 22.8601C17.7429 22.8601 17.1189 23.1061 16.6755 23.495L16.675 23.4955C16.2364 23.8792 15.9875 24.3816 15.9875 24.9212C15.9875 25.232 16.0733 25.5183 16.2252 25.7725C16.6001 26.3796 17.4226 26.8419 18.4695 26.8419C19.5206 26.8419 20.34 26.3855 20.713 25.7738C20.8654 25.5192 20.9515 25.2325 20.9515 24.9212C20.9515 24.38 20.7017 23.8751 20.2585 23.5057L20.2502 23.4988L20.2503 23.4988C19.8015 23.1121 19.1738 22.8601 18.4607 22.8601ZM15.8081 22.5059C16.5048 21.8949 17.4419 21.5446 18.4607 21.5446C19.4821 21.5446 20.414 21.9051 21.1049 22.4986C21.817 23.0939 22.2671 23.9557 22.2671 24.9212C22.2671 25.4862 22.1081 26.0057 21.8401 26.4523L21.838 26.4558L21.838 26.4558C21.1757 27.5447 19.8731 28.1575 18.4695 28.1575C17.0624 28.1575 15.7634 27.5336 15.1025 26.4583L15.0988 26.4524L15.0989 26.4523C14.8309 26.0057 14.6719 25.4861 14.6719 24.9212C14.6719 23.9522 15.1246 23.104 15.8087 22.5054L16.2418 23.0004L15.8081 22.5059Z" fill="#05AA58"/>
<path fill-rule="evenodd" clip-rule="evenodd" d="M18.4799 22.8519C17.0166 22.8519 15.9978 23.8604 15.9978 24.9218V27.3336C15.9978 28.343 16.9737 29.2544 18.4799 29.2544C19.9851 29.2544 20.9532 28.3526 20.9532 27.3336V24.9218C20.9532 24.3806 20.7029 23.8707 20.2676 23.489C19.8189 23.1032 19.192 22.8519 18.4799 22.8519ZM14.6823 24.9218C14.6823 22.9661 16.47 21.5364 18.4799 21.5364C19.5033 21.5364 20.4369 21.8983 21.1282 22.4939L21.132 22.4972L21.132 22.4972C21.8181 23.0976 22.2687 23.9552 22.2687 24.9218V27.3336C22.2687 29.3317 20.4303 30.5699 18.4799 30.5699C16.5305 30.5699 14.6823 29.3237 14.6823 27.3336V24.9218Z" fill="#05AA58"/>
<path fill-rule="evenodd" clip-rule="evenodd" d="M28.7754 21.9309C28.4605 21.9309 28.1836 22.053 27.9838 22.2582L27.972 22.27C27.7386 22.4978 27.6083 22.8221 27.6411 23.1666L27.6418 23.1743L27.6418 23.1743C27.6882 23.7312 28.2237 24.2112 28.8807 24.2112H30.5846C30.7263 24.2021 30.8189 24.0912 30.8189 23.9745V22.1677C30.8189 22.0509 30.7263 21.9401 30.5846 21.9309H28.7754ZM27.047 21.3345C27.4957 20.8768 28.1109 20.6154 28.7754 20.6154H30.5997C30.6075 20.6154 30.6153 20.6155 30.6232 20.6158C31.459 20.6456 32.1345 21.322 32.1345 22.1677V23.9745C32.1345 24.8202 31.459 25.4965 30.6232 25.5264C30.6153 25.5266 30.6075 25.5268 30.5997 25.5268H28.8807C27.6444 25.5268 26.4445 24.6228 26.3311 23.2874C26.2603 22.5313 26.5482 21.8248 27.047 21.3345Z" fill="#05AA58"/>
<path fill-rule="evenodd" clip-rule="evenodd" d="M18.3202 16.2741C18.106 16.2741 17.9027 16.2894 17.7098 16.319L17.6917 16.3216C16.7205 16.4434 15.9571 16.8592 15.4343 17.4726C14.9102 18.0874 14.5927 18.9428 14.5927 20.0015V21.7556C14.5927 22.1189 14.2982 22.4134 13.935 22.4134C13.5717 22.4134 13.2772 22.1189 13.2772 21.7556V20.0015C13.2772 18.6747 13.6789 17.504 14.4331 16.6192C15.1868 15.7348 16.2575 15.1777 17.5188 15.0174C17.7792 14.9778 18.0464 14.9585 18.3202 14.9585H26.2136C26.4501 14.9585 26.7054 14.967 26.963 15.0086C28.2352 15.16 29.3179 15.7135 30.0816 16.5986C30.8473 17.4858 31.2566 18.6643 31.2566 20.0015V21.2732C31.2566 21.6365 30.9621 21.931 30.5988 21.931H28.7745C28.4596 21.931 28.1827 22.0531 27.9829 22.2583L27.9711 22.2701C27.7377 22.4979 27.6074 22.8222 27.6402 23.1667L27.6409 23.1744L27.6409 23.1744C27.6873 23.7313 28.2228 24.2113 28.8798 24.2113H30.5988C30.9621 24.2113 31.2566 24.5058 31.2566 24.8691V26.1408C31.2566 27.6059 30.7654 28.8778 29.858 29.7852C28.9506 30.6926 27.6786 31.1838 26.2136 31.1838H24.021C23.6577 31.1838 23.3632 30.8893 23.3632 30.526C23.3632 30.1628 23.6577 29.8683 24.021 29.8683H26.2136C27.3797 29.8683 28.3003 29.4824 28.9277 28.855C29.5552 28.2275 29.941 27.3069 29.941 26.1408V25.5269H28.8798C27.6435 25.5269 26.4436 24.6229 26.3302 23.2875C26.2594 22.5313 26.5473 21.8249 27.0461 21.3346C27.4949 20.8769 28.11 20.6154 28.7745 20.6154H29.941V20.0015C29.941 18.9356 29.618 18.075 29.0856 17.4581C28.5545 16.8426 27.7792 16.4279 26.7954 16.3135C26.7846 16.3123 26.7739 16.3107 26.7632 16.309C26.6054 16.2827 26.4281 16.2741 26.2136 16.2741H18.3202Z" fill="#05AA58"/>
<path d="M14.5085 55.0776V44.0269H18.2184C18.9973 44.0269 19.6392 44.1532 20.1444 44.4058C20.6496 44.6583 21.0232 44.9951 21.2653 45.4161C21.5179 45.8371 21.6442 46.3054 21.6442 46.8211C21.6442 47.3895 21.5179 47.8631 21.2653 48.242C21.0232 48.6208 20.7022 48.9103 20.3023 49.1102C19.9129 49.3102 19.5024 49.4365 19.0709 49.4891L19.2762 49.3312C19.7392 49.3418 20.1707 49.4681 20.5707 49.7101C20.9706 49.9522 21.2916 50.2784 21.5337 50.6889C21.7757 51.0888 21.8968 51.5467 21.8968 52.0624C21.8968 52.6096 21.7599 53.1148 21.4863 53.5779C21.2232 54.0304 20.8285 54.3935 20.3023 54.6672C19.7761 54.9408 19.1183 55.0776 18.3289 55.0776H14.5085ZM15.6136 54.1462H18.25C19.0499 54.1462 19.6656 53.9568 20.0971 53.5779C20.5391 53.199 20.7601 52.678 20.7601 52.015C20.7601 51.352 20.5286 50.8257 20.0655 50.4363C19.6129 50.0364 18.992 49.8364 18.2026 49.8364H15.6136V54.1462ZM15.6136 48.9208H18.1869C18.9341 48.9208 19.5077 48.7419 19.9076 48.384C20.3076 48.0262 20.5075 47.5421 20.5075 46.9316C20.5075 46.3423 20.3128 45.8687 19.9234 45.5108C19.534 45.1425 18.9394 44.9583 18.1395 44.9583H15.6136V48.9208ZM27.2122 55.2671C26.4755 55.2671 25.823 55.0934 25.2547 54.7461C24.6969 54.3988 24.2548 53.9147 23.9286 53.2937C23.6128 52.6623 23.455 51.9255 23.455 51.0836C23.455 50.2416 23.6128 49.5102 23.9286 48.8892C24.2443 48.2683 24.6863 47.7894 25.2547 47.4526C25.8335 47.1053 26.4966 46.9316 27.2438 46.9316C28.0121 46.9316 28.6593 47.1053 29.1856 47.4526C29.7223 47.7999 30.1275 48.2525 30.4012 48.8103C30.6853 49.3681 30.8274 49.9785 30.8274 50.6415C30.8274 50.7468 30.8274 50.8573 30.8274 50.9731C30.8274 51.0783 30.8221 51.2046 30.8116 51.352H24.2917V50.4205H29.7539C29.7329 49.6101 29.4803 48.9839 28.9961 48.5419C28.5225 48.0999 27.9226 47.8789 27.1964 47.8789C26.7228 47.8789 26.2808 47.9894 25.8703 48.2104C25.4704 48.4209 25.1442 48.7366 24.8916 49.1576C24.6495 49.568 24.5285 50.089 24.5285 50.7205V51.1309C24.5285 51.8466 24.6548 52.4412 24.9074 52.9148C25.1599 53.3884 25.4915 53.741 25.9019 53.9726C26.3229 54.2041 26.7597 54.3199 27.2122 54.3199C27.8121 54.3199 28.3068 54.1883 28.6962 53.9252C29.0856 53.6516 29.3645 53.2779 29.5329 52.8043H30.6222C30.4854 53.2674 30.2643 53.6884 29.9591 54.0673C29.6644 54.4462 29.2856 54.7409 28.8225 54.9513C28.3594 55.1618 27.8226 55.2671 27.2122 55.2671ZM35.5567 55.2671C34.9252 55.2671 34.3674 55.1618 33.8833 54.9513C33.4097 54.7409 33.0255 54.4409 32.7308 54.0515C32.4467 53.6516 32.273 53.178 32.2099 52.6307H33.3465C33.4097 52.9359 33.5307 53.2148 33.7096 53.4674C33.899 53.72 34.1516 53.9252 34.4674 54.0831C34.7831 54.2304 35.1567 54.3041 35.5882 54.3041C35.9882 54.3041 36.3144 54.2462 36.567 54.1304C36.8301 54.0041 37.0248 53.841 37.1511 53.641C37.2879 53.4305 37.3564 53.199 37.3564 52.9464C37.3564 52.5991 37.2722 52.3307 37.1038 52.1413C36.9459 51.9413 36.7144 51.794 36.4091 51.6993C36.1039 51.6045 35.7356 51.5151 35.3041 51.4309C34.9462 51.3677 34.6042 51.2835 34.2779 51.1783C33.9517 51.0731 33.657 50.9362 33.3939 50.7678C33.1413 50.5994 32.9413 50.389 32.794 50.1364C32.6466 49.8733 32.573 49.568 32.573 49.2207C32.573 48.7682 32.6835 48.3735 32.9045 48.0367C33.136 47.6894 33.4623 47.421 33.8833 47.2316C34.3042 47.0316 34.7989 46.9316 35.3672 46.9316C36.1776 46.9316 36.8407 47.1369 37.3564 47.5473C37.8721 47.9473 38.172 48.5366 38.2562 49.3155H37.1511C37.109 48.8839 36.9301 48.5419 36.6144 48.2893C36.2986 48.0367 35.8724 47.9104 35.3356 47.9104C34.8094 47.9104 34.4042 48.0209 34.1201 48.242C33.8464 48.4524 33.7096 48.7419 33.7096 49.1102C33.7096 49.3418 33.7833 49.5417 33.9306 49.7101C34.078 49.8785 34.2937 50.0259 34.5779 50.1522C34.8726 50.2679 35.2304 50.3679 35.6514 50.4521C36.1566 50.5468 36.6196 50.6731 37.0406 50.831C37.4721 50.9783 37.8194 51.2099 38.0825 51.5256C38.3562 51.8308 38.493 52.2676 38.493 52.8359C38.5035 53.3095 38.3878 53.7305 38.1457 54.0989C37.9036 54.4672 37.5616 54.7566 37.1196 54.9671C36.6775 55.1671 36.1566 55.2671 35.5567 55.2671ZM43.0823 55.0776C42.6297 55.0776 42.2403 55.0092 41.9141 54.8724C41.5878 54.7251 41.3352 54.4883 41.1563 54.162C40.9879 53.8252 40.9037 53.3674 40.9037 52.7886V48.0683H39.5145V47.1211H40.9037L41.0616 45.274H42.0088V47.1369H44.3926V48.0683H42.0088V52.7886C42.0088 53.3148 42.114 53.6726 42.3245 53.8621C42.535 54.041 42.9086 54.1304 43.4454 54.1304H44.2663V55.0776H43.0823ZM50.4579 55.0776V47.1211H51.4683L51.5472 48.6524C51.7156 48.2841 51.9419 47.9736 52.226 47.721C52.5102 47.4684 52.8522 47.2737 53.2522 47.1369C53.6521 47.0001 54.1047 46.9316 54.6098 46.9316V48.0841H54.1836C53.8468 48.0841 53.5206 48.1314 53.2048 48.2262C52.8891 48.3104 52.6102 48.4577 52.3681 48.6682C52.1261 48.8787 51.9313 49.1628 51.784 49.5207C51.6367 49.8785 51.563 50.3258 51.563 50.8626V55.0776H50.4579ZM58.7038 55.2671C58.0618 55.2671 57.5251 55.1513 57.0936 54.9198C56.6726 54.6882 56.3568 54.3883 56.1463 54.0199C55.9464 53.6516 55.8464 53.2464 55.8464 52.8043C55.8464 52.2571 55.9832 51.794 56.2569 51.4151C56.541 51.0362 56.9357 50.7521 57.4409 50.5626C57.946 50.3732 58.5354 50.2784 59.209 50.2784H61.356C61.356 49.7627 61.2771 49.326 61.1192 48.9681C60.9613 48.6103 60.7298 48.3419 60.4246 48.163C60.1194 47.9736 59.7352 47.8789 59.2721 47.8789C58.7354 47.8789 58.2723 48.0157 57.8829 48.2893C57.4935 48.563 57.2514 48.9629 57.1567 49.4891H56.0043C56.0674 48.9313 56.2569 48.463 56.5726 48.0841C56.8988 47.7052 57.2988 47.421 57.7724 47.2316C58.246 47.0316 58.7459 46.9316 59.2721 46.9316C60.0088 46.9316 60.6087 47.0737 61.0718 47.3579C61.5349 47.6315 61.8822 48.0104 62.1138 48.4945C62.3453 48.9787 62.4611 49.5365 62.4611 50.1679V55.0776H61.4507L61.3876 53.6253C61.2928 53.8463 61.1613 54.0568 60.9929 54.2567C60.835 54.4567 60.6456 54.6303 60.4246 54.7777C60.2141 54.925 59.9667 55.0408 59.6826 55.125C59.3984 55.2197 59.0722 55.2671 58.7038 55.2671ZM58.8301 54.3041C59.2195 54.3041 59.5668 54.2251 59.872 54.0673C60.1878 53.8989 60.4561 53.6831 60.6772 53.42C60.8982 53.1569 61.0666 52.8622 61.1823 52.536C61.2981 52.1992 61.356 51.8519 61.356 51.494V51.2099H59.2879C58.7301 51.2099 58.2828 51.2783 57.946 51.4151C57.6093 51.5519 57.3672 51.7361 57.2198 51.9676C57.0725 52.1992 56.9988 52.4676 56.9988 52.7728C56.9988 53.078 57.0672 53.3464 57.2041 53.5779C57.3409 53.7989 57.5461 53.9778 57.8197 54.1146C58.1039 54.2409 58.4407 54.3041 58.8301 54.3041ZM67.3175 55.0776C66.8649 55.0776 66.4755 55.0092 66.1493 54.8724C65.823 54.7251 65.5704 54.4883 65.3915 54.162C65.2231 53.8252 65.1389 53.3674 65.1389 52.7886V48.0683H63.7497V47.1211H65.1389L65.2968 45.274H66.244V47.1369H68.6278V48.0683H66.244V52.7886C66.244 53.3148 66.3492 53.6726 66.5597 53.8621C66.7702 54.041 67.1438 54.1304 67.6806 54.1304H68.5015V55.0776H67.3175ZM73.5397 55.2671C72.803 55.2671 72.1505 55.0934 71.5821 54.7461C71.0243 54.3988 70.5823 53.9147 70.256 53.2937C69.9403 52.6623 69.7824 51.9255 69.7824 51.0836C69.7824 50.2416 69.9403 49.5102 70.256 48.8892C70.5718 48.2683 71.0138 47.7894 71.5821 47.4526C72.161 47.1053 72.824 46.9316 73.5713 46.9316C74.3396 46.9316 74.9868 47.1053 75.513 47.4526C76.0498 47.7999 76.455 48.2525 76.7286 48.8103C77.0128 49.3681 77.1549 49.9785 77.1549 50.6415C77.1549 50.7468 77.1549 50.8573 77.1549 50.9731C77.1549 51.0783 77.1496 51.2046 77.1391 51.352H70.6191V50.4205H76.0814C76.0603 49.6101 75.8077 48.9839 75.3236 48.5419C74.85 48.0999 74.2501 47.8789 73.5239 47.8789C73.0503 47.8789 72.6083 47.9894 72.1978 48.2104C71.7979 48.4209 71.4716 48.7366 71.219 49.1576C70.977 49.568 70.8559 50.089 70.8559 50.7205V51.1309C70.8559 51.8466 70.9822 52.4412 71.2348 52.9148C71.4874 53.3884 71.8189 53.741 72.2294 53.9726C72.6504 54.2041 73.0871 54.3199 73.5397 54.3199C74.1396 54.3199 74.6342 54.1883 75.0237 53.9252C75.4131 53.6516 75.692 53.2779 75.8604 52.8043H76.9496C76.8128 53.2674 76.5918 53.6884 76.2866 54.0673C75.9919 54.4462 75.613 54.7409 75.1499 54.9513C74.6869 55.1618 74.1501 55.2671 73.5397 55.2671ZM81.8841 55.2671C81.2527 55.2671 80.6949 55.1618 80.2107 54.9513C79.7371 54.7409 79.353 54.4409 79.0583 54.0515C78.7741 53.6516 78.6005 53.178 78.5373 52.6307H79.674C79.7371 52.9359 79.8582 53.2148 80.0371 53.4674C80.2265 53.72 80.4791 53.9252 80.7948 54.0831C81.1106 54.2304 81.4842 54.3041 81.9157 54.3041C82.3156 54.3041 82.6419 54.2462 82.8945 54.1304C83.1576 54.0041 83.3523 53.841 83.4786 53.641C83.6154 53.4305 83.6838 53.199 83.6838 52.9464C83.6838 52.5991 83.5996 52.3307 83.4312 52.1413C83.2734 51.9413 83.0418 51.794 82.7366 51.6993C82.4314 51.6045 82.063 51.5151 81.6315 51.4309C81.2737 51.3677 80.9317 51.2835 80.6054 51.1783C80.2791 51.0731 79.9844 50.9362 79.7213 50.7678C79.4687 50.5994 79.2688 50.389 79.1214 50.1364C78.9741 49.8733 78.9004 49.568 78.9004 49.2207C78.9004 48.7682 79.0109 48.3735 79.2319 48.0367C79.4635 47.6894 79.7897 47.421 80.2107 47.2316C80.6317 47.0316 81.1264 46.9316 81.6947 46.9316C82.5051 46.9316 83.1681 47.1369 83.6838 47.5473C84.1995 47.9473 84.4995 48.5366 84.5837 49.3155H83.4786C83.4365 48.8839 83.2576 48.5419 82.9418 48.2893C82.6261 48.0367 82.1999 47.9104 81.6631 47.9104C81.1369 47.9104 80.7317 48.0209 80.4475 48.242C80.1739 48.4524 80.0371 48.7419 80.0371 49.1102C80.0371 49.3418 80.1107 49.5417 80.2581 49.7101C80.4054 49.8785 80.6212 50.0259 80.9053 50.1522C81.2 50.2679 81.5579 50.3679 81.9788 50.4521C82.484 50.5468 82.9471 50.6731 83.3681 50.831C83.7996 50.9783 84.1469 51.2099 84.41 51.5256C84.6837 51.8308 84.8205 52.2676 84.8205 52.8359C84.831 53.3095 84.7152 53.7305 84.4732 54.0989C84.2311 54.4672 83.889 54.7566 83.447 54.9671C83.005 55.1671 82.484 55.2671 81.8841 55.2671ZM91.601 55.0776V45.7476C91.601 45.2846 91.6747 44.9057 91.822 44.611C91.9799 44.3058 92.2115 44.0795 92.5167 43.9322C92.8219 43.7848 93.206 43.7111 93.6691 43.7111H94.5689V44.6583H93.8585C93.4376 44.6583 93.1376 44.7425 92.9587 44.9109C92.7903 45.0793 92.7061 45.374 92.7061 45.795V55.0776H91.601ZM90.3697 48.0683V47.1211H94.7742V48.0683H90.3697ZM99.5809 55.2671C98.8547 55.2671 98.1969 55.0987 97.6075 54.7619C97.0287 54.4146 96.5709 53.9305 96.2341 53.3095C95.8973 52.678 95.7289 51.9466 95.7289 51.1152C95.7289 50.2521 95.8973 49.5102 96.2341 48.8892C96.5814 48.2683 97.0497 47.7894 97.6391 47.4526C98.2285 47.1053 98.8863 46.9316 99.6125 46.9316C100.37 46.9316 101.039 47.1053 101.617 47.4526C102.196 47.7894 102.654 48.2683 102.991 48.8892C103.328 49.5102 103.496 50.2521 103.496 51.1152C103.496 51.9466 103.322 52.678 102.975 53.3095C102.638 53.9305 102.175 54.4146 101.586 54.7619C101.007 55.0987 100.339 55.2671 99.5809 55.2671ZM99.5967 54.3199C100.091 54.3199 100.544 54.1988 100.954 53.9568C101.375 53.7147 101.712 53.3569 101.965 52.8833C102.228 52.3991 102.359 51.8045 102.359 51.0994C102.359 50.3837 102.233 49.7891 101.98 49.3155C101.728 48.8419 101.391 48.4893 100.97 48.2577C100.56 48.0157 100.107 47.8946 99.6125 47.8946C99.1389 47.8946 98.6916 48.0157 98.2706 48.2577C97.8496 48.4998 97.5076 48.8576 97.2444 49.3312C96.9918 49.7943 96.8656 50.3837 96.8656 51.0994C96.8656 51.8045 96.9918 52.3991 97.2444 52.8833C97.497 53.3569 97.8286 53.7147 98.239 53.9568C98.66 54.1988 99.1125 54.3199 99.5967 54.3199ZM105.388 55.0776V47.1211H106.398L106.477 48.6524C106.646 48.2841 106.872 47.9736 107.156 47.721C107.44 47.4684 107.782 47.2737 108.182 47.1369C108.582 47.0001 109.035 46.9316 109.54 46.9316V48.0841H109.114C108.777 48.0841 108.451 48.1314 108.135 48.2262C107.819 48.3104 107.54 48.4577 107.298 48.6682C107.056 48.8787 106.861 49.1628 106.714 49.5207C106.567 49.8785 106.493 50.3258 106.493 50.8626V55.0776H105.388ZM118.944 55.2671C118.208 55.2671 117.55 55.0934 116.971 54.7461C116.392 54.3988 115.934 53.9147 115.598 53.2937C115.261 52.6623 115.092 51.9361 115.092 51.1152C115.092 50.2627 115.261 49.5312 115.598 48.9208C115.934 48.2998 116.392 47.8157 116.971 47.4684C117.56 47.1106 118.218 46.9316 118.944 46.9316C119.871 46.9316 120.639 47.1737 121.249 47.6578C121.87 48.1314 122.265 48.7629 122.433 49.5523H121.328C121.212 49.026 120.934 48.6208 120.491 48.3367C120.06 48.042 119.539 47.8946 118.929 47.8946C118.455 47.8946 118.013 48.0157 117.603 48.2577C117.192 48.4893 116.861 48.8419 116.608 49.3155C116.355 49.7891 116.229 50.389 116.229 51.1152C116.229 51.6519 116.303 52.1202 116.45 52.5202C116.597 52.9201 116.797 53.2569 117.05 53.5305C117.303 53.7936 117.592 53.9936 117.918 54.1304C118.244 54.2672 118.581 54.3357 118.929 54.3357C119.329 54.3357 119.692 54.2725 120.018 54.1462C120.355 54.0094 120.639 53.8147 120.87 53.5621C121.102 53.3095 121.255 53.0043 121.328 52.6465H122.433C122.275 53.4148 121.886 54.0462 121.265 54.5409C120.644 55.025 119.871 55.2671 118.944 55.2671ZM126.877 55.2671C126.235 55.2671 125.698 55.1513 125.267 54.9198C124.846 54.6882 124.53 54.3883 124.319 54.0199C124.119 53.6516 124.019 53.2464 124.019 52.8043C124.019 52.2571 124.156 51.794 124.43 51.4151C124.714 51.0362 125.109 50.7521 125.614 50.5626C126.119 50.3732 126.708 50.2784 127.382 50.2784H129.529C129.529 49.7627 129.45 49.326 129.292 48.9681C129.134 48.6103 128.903 48.3419 128.598 48.163C128.292 47.9736 127.908 47.8789 127.445 47.8789C126.908 47.8789 126.445 48.0157 126.056 48.2893C125.667 48.563 125.424 48.9629 125.33 49.4891H124.177C124.24 48.9313 124.43 48.463 124.746 48.0841C125.072 47.7052 125.472 47.421 125.945 47.2316C126.419 47.0316 126.919 46.9316 127.445 46.9316C128.182 46.9316 128.782 47.0737 129.245 47.3579C129.708 47.6315 130.055 48.0104 130.287 48.4945C130.518 48.9787 130.634 49.5365 130.634 50.1679V55.0776H129.624L129.561 53.6253C129.466 53.8463 129.334 54.0568 129.166 54.2567C129.008 54.4567 128.819 54.6303 128.598 54.7777C128.387 54.925 128.14 55.0408 127.856 55.125C127.571 55.2197 127.245 55.2671 126.877 55.2671ZM127.003 54.3041C127.393 54.3041 127.74 54.2251 128.045 54.0673C128.361 53.8989 128.629 53.6831 128.85 53.42C129.071 53.1569 129.24 52.8622 129.355 52.536C129.471 52.1992 129.529 51.8519 129.529 51.494V51.2099H127.461C126.903 51.2099 126.456 51.2783 126.119 51.4151C125.782 51.5519 125.54 51.7361 125.393 51.9676C125.246 52.1992 125.172 52.4676 125.172 52.7728C125.172 53.078 125.24 53.3464 125.377 53.5779C125.514 53.7989 125.719 53.9778 125.993 54.1146C126.277 54.2409 126.614 54.3041 127.003 54.3041ZM132.722 55.0776V47.1211H133.732L133.811 48.6524C133.98 48.2841 134.206 47.9736 134.49 47.721C134.774 47.4684 135.116 47.2737 135.516 47.1369C135.916 47.0001 136.369 46.9316 136.874 46.9316V48.0841H136.448C136.111 48.0841 135.785 48.1314 135.469 48.2262C135.153 48.3104 134.874 48.4577 134.632 48.6682C134.39 48.8787 134.195 49.1628 134.048 49.5207C133.901 49.8785 133.827 50.3258 133.827 50.8626V55.0776H132.722ZM142.483 55.2671C142.02 55.2671 141.594 55.1987 141.205 55.0618C140.826 54.9145 140.494 54.7198 140.21 54.4777C139.926 54.2251 139.7 53.941 139.531 53.6253L139.437 55.0776H138.426V43.7111H139.531V48.5577C139.794 48.1051 140.173 47.721 140.668 47.4053C141.163 47.0895 141.768 46.9316 142.483 46.9316C143.262 46.9316 143.941 47.1158 144.52 47.4842C145.099 47.842 145.541 48.3367 145.846 48.9681C146.162 49.5891 146.32 50.2995 146.32 51.0994C146.32 51.8992 146.162 52.6149 145.846 53.2464C145.53 53.8778 145.083 54.3725 144.504 54.7303C143.936 55.0882 143.262 55.2671 142.483 55.2671ZM142.404 54.3041C142.962 54.3041 143.446 54.1725 143.857 53.9094C144.267 53.6463 144.594 53.2727 144.836 52.7886C145.078 52.3044 145.199 51.7414 145.199 51.0994C145.199 50.4468 145.078 49.8838 144.836 49.4102C144.594 48.926 144.262 48.5524 143.841 48.2893C143.431 48.0262 142.952 47.8946 142.404 47.8946C141.857 47.8946 141.368 48.0262 140.936 48.2893C140.515 48.5524 140.184 48.926 139.942 49.4102C139.71 49.8943 139.594 50.4574 139.594 51.0994C139.594 51.7519 139.71 52.3202 139.942 52.8043C140.184 53.2779 140.515 53.6463 140.936 53.9094C141.368 54.1725 141.857 54.3041 142.404 54.3041ZM151.72 55.2671C150.994 55.2671 150.337 55.0987 149.747 54.7619C149.168 54.4146 148.71 53.9305 148.374 53.3095C148.037 52.678 147.869 51.9466 147.869 51.1152C147.869 50.2521 148.037 49.5102 148.374 48.8892C148.721 48.2683 149.189 47.7894 149.779 47.4526C150.368 47.1053 151.026 46.9316 151.752 46.9316C152.51 46.9316 153.178 47.1053 153.757 47.4526C154.336 47.7894 154.794 48.2683 155.13 48.8892C155.467 49.5102 155.636 50.2521 155.636 51.1152C155.636 51.9466 155.462 52.678 155.115 53.3095C154.778 53.9305 154.315 54.4146 153.725 54.7619C153.147 55.0987 152.478 55.2671 151.72 55.2671ZM151.736 54.3199C152.231 54.3199 152.683 54.1988 153.094 53.9568C153.515 53.7147 153.852 53.3569 154.104 52.8833C154.367 52.3991 154.499 51.8045 154.499 51.0994C154.499 50.3837 154.373 49.7891 154.12 49.3155C153.867 48.8419 153.531 48.4893 153.11 48.2577C152.699 48.0157 152.247 47.8946 151.752 47.8946C151.278 47.8946 150.831 48.0157 150.41 48.2577C149.989 48.4998 149.647 48.8576 149.384 49.3312C149.131 49.7943 149.005 50.3837 149.005 51.0994C149.005 51.8045 149.131 52.3991 149.384 52.8833C149.637 53.3569 149.968 53.7147 150.379 53.9568C150.8 54.1988 151.252 54.3199 151.736 54.3199ZM157.528 55.0776V47.1211H158.538L158.601 48.5419C158.854 48.0367 159.217 47.6421 159.69 47.3579C160.174 47.0737 160.711 46.9316 161.301 46.9316C161.911 46.9316 162.443 47.0527 162.895 47.2947C163.348 47.5368 163.7 47.9052 163.953 48.3998C164.205 48.8839 164.332 49.5049 164.332 50.2627V55.0776H163.227V50.389C163.227 49.547 163.042 48.9208 162.674 48.5103C162.306 48.0999 161.779 47.8946 161.095 47.8946C160.632 47.8946 160.211 48.0104 159.832 48.242C159.464 48.463 159.169 48.7892 158.948 49.2207C158.738 49.6522 158.633 50.1837 158.633 50.8152V55.0776H157.528ZM17.9027 76.2671C17.166 76.2671 16.5082 76.0934 15.9294 75.7461C15.3505 75.3988 14.8927 74.9147 14.5559 74.2937C14.2191 73.6623 14.0507 72.9361 14.0507 72.1152C14.0507 71.2627 14.2191 70.5312 14.5559 69.9208C14.8927 69.2998 15.3505 68.8157 15.9294 68.4684C16.5187 68.1106 17.1765 67.9316 17.9027 67.9316C18.8289 67.9316 19.5972 68.1737 20.2076 68.6578C20.8285 69.1314 21.2232 69.7629 21.3916 70.5523H20.2865C20.1707 70.026 19.8918 69.6208 19.4498 69.3367C19.0183 69.042 18.4973 68.8946 17.8869 68.8946C17.4133 68.8946 16.9713 69.0157 16.5608 69.2577C16.1504 69.4893 15.8188 69.8419 15.5663 70.3155C15.3137 70.7891 15.1874 71.389 15.1874 72.1152C15.1874 72.6519 15.261 73.1202 15.4084 73.5202C15.5557 73.9201 15.7557 74.2569 16.0083 74.5305C16.2609 74.7936 16.5503 74.9936 16.8766 75.1304C17.2028 75.2672 17.5396 75.3357 17.8869 75.3357C18.2868 75.3357 18.6499 75.2725 18.9762 75.1462C19.313 75.0094 19.5972 74.8147 19.8287 74.5621C20.0602 74.3095 20.2128 74.0043 20.2865 73.6465H21.3916C21.2337 74.4148 20.8443 75.0462 20.2234 75.5409C19.6024 76.025 18.8289 76.2671 17.9027 76.2671ZM23.2935 76.0776V68.1211H24.3039L24.3828 69.6524C24.5512 69.2841 24.7775 68.9736 25.0616 68.721C25.3458 68.4684 25.6879 68.2737 26.0878 68.1369C26.4877 68.0001 26.9403 67.9316 27.4454 67.9316V69.0841H27.0192C26.6824 69.0841 26.3562 69.1314 26.0404 69.2262C25.7247 69.3104 25.4458 69.4577 25.2037 69.6682C24.9617 69.8787 24.767 70.1628 24.6196 70.5207C24.4723 70.8785 24.3986 71.3258 24.3986 71.8626V76.0776H23.2935ZM32.0685 76.2671C31.3318 76.2671 30.6793 76.0934 30.111 75.7461C29.5532 75.3988 29.1111 74.9147 28.7849 74.2937C28.4691 73.6623 28.3113 72.9255 28.3113 72.0836C28.3113 71.2416 28.4691 70.5102 28.7849 69.8892C29.1006 69.2683 29.5426 68.7894 30.111 68.4526C30.6898 68.1053 31.3528 67.9316 32.1001 67.9316C32.8684 67.9316 33.5156 68.1053 34.0419 68.4526C34.5786 68.7999 34.9838 69.2525 35.2574 69.8103C35.5416 70.3681 35.6837 70.9785 35.6837 71.6415C35.6837 71.7468 35.6837 71.8573 35.6837 71.9731C35.6837 72.0783 35.6784 72.2046 35.6679 72.352H29.148V71.4205H34.6102C34.5891 70.6101 34.3366 69.9839 33.8524 69.5419C33.3788 69.0999 32.7789 68.8789 32.0527 68.8789C31.5791 68.8789 31.1371 68.9894 30.7266 69.2104C30.3267 69.4209 30.0004 69.7366 29.7479 70.1576C29.5058 70.568 29.3848 71.089 29.3848 71.7205V72.1309C29.3848 72.8466 29.5111 73.4412 29.7636 73.9148C30.0162 74.3884 30.3478 74.741 30.7582 74.9726C31.1792 75.2041 31.616 75.3199 32.0685 75.3199C32.6684 75.3199 33.1631 75.1883 33.5525 74.9252C33.9419 74.6516 34.2208 74.2779 34.3892 73.8043H35.4785C35.3416 74.2674 35.1206 74.6884 34.8154 75.0673C34.5207 75.4462 34.1418 75.7409 33.6788 75.9513C33.2157 76.1618 32.6789 76.2671 32.0685 76.2671ZM40.9655 76.2671C40.1972 76.2671 39.5236 76.0882 38.9448 75.7303C38.3765 75.362 37.9344 74.8621 37.6187 74.2306C37.3029 73.5991 37.1451 72.8834 37.1451 72.0836C37.1451 71.2837 37.3029 70.5733 37.6187 69.9524C37.9344 69.3209 38.3817 68.8262 38.9606 68.4684C39.5394 68.1106 40.213 67.9316 40.9813 67.9316C41.6548 67.9316 42.2442 68.079 42.7494 68.3737C43.2651 68.6578 43.6598 69.063 43.9334 69.5893V64.7111H45.0385V76.0776H44.0281L43.9334 74.641C43.765 74.9147 43.544 75.1778 43.2704 75.4304C43.0072 75.683 42.681 75.8882 42.2916 76.0461C41.9127 76.1934 41.4707 76.2671 40.9655 76.2671ZM41.0602 75.3041C41.618 75.3041 42.1021 75.1725 42.5126 74.9094C42.9336 74.6463 43.2598 74.2727 43.4914 73.7886C43.7334 73.3044 43.8545 72.7414 43.8545 72.0994C43.8545 71.4574 43.7334 70.8943 43.4914 70.4102C43.2598 69.926 42.9336 69.5524 42.5126 69.2893C42.1021 69.0262 41.618 68.8946 41.0602 68.8946C40.5129 68.8946 40.0288 69.0262 39.6078 69.2893C39.1868 69.5524 38.8553 69.926 38.6133 70.4102C38.3817 70.8838 38.2659 71.4468 38.2659 72.0994C38.2659 72.7519 38.387 73.3202 38.629 73.8043C38.8711 74.2779 39.2026 74.6463 39.6236 74.9094C40.0446 75.1725 40.5235 75.3041 41.0602 75.3041ZM47.4399 76.0776V68.1211H48.5292V76.0776H47.4399ZM47.9925 66.2425C47.7714 66.2425 47.582 66.1688 47.4241 66.0214C47.2663 65.8636 47.1873 65.6689 47.1873 65.4373C47.1873 65.1953 47.261 65.0058 47.4084 64.869C47.5662 64.7217 47.7557 64.648 47.9767 64.648C48.1977 64.648 48.3871 64.7217 48.545 64.869C48.7029 65.0058 48.7818 65.1953 48.7818 65.4373C48.7818 65.6689 48.7029 65.8636 48.545 66.0214C48.3977 66.1688 48.2135 66.2425 47.9925 66.2425ZM53.9511 76.0776C53.4986 76.0776 53.1092 76.0092 52.7829 75.8724C52.4566 75.7251 52.204 75.4883 52.0251 75.162C51.8567 74.8252 51.7725 74.3674 51.7725 73.7886V69.0683H50.3833V68.1211H51.7725L51.9304 66.274H52.8776V68.1369H55.2614V69.0683H52.8776V73.7886C52.8776 74.3148 52.9829 74.6726 53.1933 74.8621C53.4038 75.041 53.7775 75.1304 54.3142 75.1304H55.1351V76.0776H53.9511ZM59.8998 76.2671C59.2683 76.2671 58.7105 76.1618 58.2264 75.9513C57.7528 75.7409 57.3686 75.4409 57.0739 75.0515C56.7898 74.6516 56.6161 74.178 56.553 73.6307H57.6896C57.7528 73.9359 57.8738 74.2148 58.0527 74.4674C58.2422 74.72 58.4948 74.9252 58.8105 75.0831C59.1262 75.2304 59.4998 75.3041 59.9314 75.3041C60.3313 75.3041 60.6575 75.2462 60.9101 75.1304C61.1732 75.0041 61.3679 74.841 61.4942 74.641C61.6311 74.4305 61.6995 74.199 61.6995 73.9464C61.6995 73.5991 61.6153 73.3307 61.4469 73.1413C61.289 72.9413 61.0575 72.794 60.7523 72.6993C60.4471 72.6045 60.0787 72.5151 59.6472 72.4309C59.2894 72.3677 58.9473 72.2835 58.621 72.1783C58.2948 72.0731 58.0001 71.9362 57.737 71.7678C57.4844 71.5994 57.2844 71.389 57.1371 71.1364C56.9897 70.8733 56.9161 70.568 56.9161 70.2207C56.9161 69.7682 57.0266 69.3735 57.2476 69.0367C57.4791 68.6894 57.8054 68.421 58.2264 68.2316C58.6474 68.0316 59.142 67.9316 59.7103 67.9316C60.5207 67.9316 61.1838 68.1369 61.6995 68.5473C62.2152 68.9473 62.5151 69.5366 62.5993 70.3155H61.4942C61.4521 69.8839 61.2732 69.5419 60.9575 69.2893C60.6418 69.0367 60.2155 68.9104 59.6788 68.9104C59.1525 68.9104 58.7473 69.0209 58.4632 69.242C58.1895 69.4524 58.0527 69.7419 58.0527 70.1102C58.0527 70.3418 58.1264 70.5417 58.2737 70.7101C58.4211 70.8785 58.6368 71.0259 58.921 71.1522C59.2157 71.2679 59.5735 71.3679 59.9945 71.4521C60.4997 71.5468 60.9628 71.6731 61.3837 71.831C61.8152 71.9783 62.1626 72.2099 62.4257 72.5256C62.6993 72.8308 62.8361 73.2676 62.8361 73.8359C62.8466 74.3095 62.7309 74.7305 62.4888 75.0989C62.2467 75.4672 61.9047 75.7566 61.4627 75.9671C61.0206 76.1671 60.4997 76.2671 59.8998 76.2671ZM65.1586 76.1566C64.9271 76.1566 64.7324 76.0776 64.5745 75.9198C64.4272 75.7619 64.3535 75.5672 64.3535 75.3357C64.3535 75.1041 64.4272 74.9147 64.5745 74.7673C64.7324 74.6095 64.9271 74.5305 65.1586 74.5305C65.3902 74.5305 65.5796 74.6095 65.727 74.7673C65.8848 74.9147 65.9638 75.1094 65.9638 75.3514C65.9638 75.5725 65.8848 75.7619 65.727 75.9198C65.5796 76.0776 65.3902 76.1566 65.1586 76.1566Z" fill="black"/>
</svg>
