<svg width="191" height="97" viewBox="0 0 191 97" fill="none" xmlns="http://www.w3.org/2000/svg">
<rect x="0.691932" y="0.657661" width="189.65" height="94.7257" rx="9.34222" fill="#05AA58" fill-opacity="0.09"/>
<rect x="0.691932" y="0.657661" width="189.65" height="94.7257" rx="9.34222" stroke="#05AA58" stroke-width="1.31557"/>
<path d="M20.5408 23.7314L22.6545 25.8538L26.8906 21.6089" stroke="#05AA58" stroke-width="1.31557" stroke-linecap="round" stroke-linejoin="round"/>
<path d="M22.6192 15.3556C23.2243 14.8382 24.2154 14.8382 24.8293 15.3556L26.2151 16.5484C26.4782 16.7764 26.9693 16.9606 27.3201 16.9606H28.8111C29.7408 16.9606 30.5038 17.7236 30.5038 18.6533V20.1443C30.5038 20.4863 30.688 20.9862 30.916 21.2494L32.1088 22.6351C32.6263 23.2403 32.6263 24.2313 32.1088 24.8452L30.916 26.231C30.688 26.4941 30.5038 26.9852 30.5038 27.336V28.827C30.5038 29.7567 29.7408 30.5197 28.8111 30.5197H27.3201C26.9781 30.5197 26.4782 30.7039 26.2151 30.9319L24.8293 32.1247C24.2242 32.6422 23.2331 32.6422 22.6192 32.1247L21.2335 30.9319C20.9703 30.7039 20.4792 30.5197 20.1284 30.5197H18.6111C17.6814 30.5197 16.9184 29.7567 16.9184 28.827V27.3273C16.9184 26.9852 16.7342 26.4941 16.515 26.231L15.3309 24.8365C14.8223 24.2313 14.8223 23.249 15.3309 22.6439L16.515 21.2494C16.7342 20.9862 16.9184 20.4951 16.9184 20.1531V18.6445C16.9184 17.7149 17.6814 16.9518 18.6111 16.9518H20.1284C20.4704 16.9518 20.9703 16.7677 21.2335 16.5396L22.6192 15.3556Z" stroke="#05AA58" stroke-width="1.31557" stroke-linecap="round" stroke-linejoin="round"/>
<path d="M14.4212 56.834V45.7832H15.6841L19.7413 53.7556L23.8143 45.7832H25.0931V56.834H23.988V47.8039L20.1676 55.2869H19.3467L15.5263 47.8355V56.834H14.4212ZM29.9875 57.0234C29.3455 57.0234 28.8087 56.9077 28.3772 56.6761C27.9562 56.4446 27.6405 56.1446 27.43 55.7763C27.23 55.4079 27.1301 55.0027 27.1301 54.5607C27.1301 54.0134 27.2669 53.5503 27.5405 53.1714C27.8247 52.7926 28.2193 52.5084 28.7245 52.319C29.2297 52.1295 29.8191 52.0348 30.4926 52.0348H32.6396C32.6396 51.5191 32.5607 51.0823 32.4028 50.7245C32.245 50.3667 32.0134 50.0983 31.7082 49.9194C31.403 49.7299 31.0189 49.6352 30.5558 49.6352C30.019 49.6352 29.556 49.772 29.1666 50.0457C28.7771 50.3193 28.5351 50.7192 28.4404 51.2455H27.2879C27.3511 50.6877 27.5405 50.2193 27.8562 49.8404C28.1825 49.4615 28.5824 49.1774 29.056 48.9879C29.5296 48.788 30.0296 48.688 30.5558 48.688C31.2925 48.688 31.8924 48.8301 32.3555 49.1142C32.8186 49.3879 33.1659 49.7668 33.3974 50.2509C33.629 50.735 33.7447 51.2928 33.7447 51.9243V56.834H32.7344L32.6712 55.3816C32.5765 55.6026 32.4449 55.8131 32.2766 56.0131C32.1187 56.213 31.9292 56.3867 31.7082 56.534C31.4977 56.6814 31.2504 56.7971 30.9662 56.8813C30.6821 56.9761 30.3558 57.0234 29.9875 57.0234ZM30.1138 56.0604C30.5032 56.0604 30.8505 55.9815 31.1557 55.8236C31.4714 55.6552 31.7398 55.4395 31.9608 55.1764C32.1818 54.9133 32.3502 54.6186 32.466 54.2923C32.5818 53.9555 32.6396 53.6082 32.6396 53.2504V52.9662H30.5716C30.0138 52.9662 29.5665 53.0346 29.2297 53.1714C28.8929 53.3083 28.6509 53.4924 28.5035 53.724C28.3562 53.9555 28.2825 54.2239 28.2825 54.5291C28.2825 54.8343 28.3509 55.1027 28.4877 55.3342C28.6245 55.5553 28.8298 55.7342 29.1034 55.871C29.3876 55.9973 29.7244 56.0604 30.1138 56.0604ZM35.059 56.834L37.7112 52.8557L35.059 48.8774H36.243L38.4689 52.2716L40.7106 48.8774H41.8947L39.2425 52.8557L41.8947 56.834H40.7106L38.4689 53.424L36.2588 56.834H35.059ZM43.5138 56.834V48.8774H44.6031V56.834H43.5138ZM44.0663 46.9988C43.8453 46.9988 43.6559 46.9251 43.498 46.7778C43.3401 46.6199 43.2612 46.4252 43.2612 46.1937C43.2612 45.9516 43.3349 45.7622 43.4822 45.6254C43.6401 45.478 43.8295 45.4043 44.0505 45.4043C44.2716 45.4043 44.461 45.478 44.6189 45.6254C44.7767 45.7622 44.8557 45.9516 44.8557 46.1937C44.8557 46.4252 44.7767 46.6199 44.6189 46.7778C44.4715 46.9251 44.2873 46.9988 44.0663 46.9988ZM47.0097 56.834V48.8774H48.0201L48.099 50.0772C48.3411 49.6352 48.6778 49.2932 49.1094 49.0511C49.5409 48.809 50.0197 48.688 50.5459 48.688C50.9354 48.688 51.2985 48.7459 51.6352 48.8617C51.972 48.9774 52.2667 49.1511 52.5193 49.3826C52.7824 49.6142 52.9876 49.9141 53.135 50.2825C53.3981 49.7878 53.7665 49.3984 54.2401 49.1142C54.7242 48.8301 55.2399 48.688 55.7872 48.688C56.3976 48.688 56.9238 48.809 57.3658 49.0511C57.8184 49.2932 58.171 49.6615 58.4236 50.1562C58.6762 50.6508 58.8024 51.277 58.8024 52.0348V56.834H57.6974V52.1611C57.6974 51.3191 57.5237 50.6929 57.1764 50.2825C56.8291 49.8615 56.345 49.651 55.724 49.651C55.303 49.651 54.9189 49.7668 54.5716 49.9983C54.2243 50.2193 53.9506 50.5456 53.7507 50.9771C53.5507 51.3981 53.4507 51.9243 53.4507 52.5558V56.834H52.3456V52.1611C52.3456 51.3191 52.172 50.6929 51.8247 50.2825C51.4879 49.8615 51.009 49.651 50.3881 49.651C49.9566 49.651 49.5672 49.7668 49.2199 49.9983C48.8831 50.2193 48.6147 50.5508 48.4147 50.9929C48.2148 51.4244 48.1148 51.9611 48.1148 52.6031V56.834H47.0097ZM61.0427 56.834V48.8774H62.132V56.834H61.0427ZM61.5952 46.9988C61.3742 46.9988 61.1848 46.9251 61.0269 46.7778C60.869 46.6199 60.7901 46.4252 60.7901 46.1937C60.7901 45.9516 60.8638 45.7622 61.0111 45.6254C61.169 45.478 61.3584 45.4043 61.5794 45.4043C61.8005 45.4043 61.9899 45.478 62.1478 45.6254C62.3056 45.7622 62.3846 45.9516 62.3846 46.1937C62.3846 46.4252 62.3056 46.6199 62.1478 46.7778C62.0004 46.9251 61.8162 46.9988 61.5952 46.9988ZM64.0019 56.834V55.9184L68.5327 49.8089H64.0808V48.8774H69.7798V49.7931L65.249 55.9184H69.8588V56.834H64.0019ZM75.0711 57.0234C74.3344 57.0234 73.6819 56.8498 73.1135 56.5025C72.5557 56.1552 72.1137 55.671 71.7875 55.0501C71.4717 54.4186 71.3139 53.6819 71.3139 52.8399C71.3139 51.998 71.4717 51.2665 71.7875 50.6456C72.1032 50.0246 72.5452 49.5457 73.1135 49.209C73.6924 48.8617 74.3554 48.688 75.1027 48.688C75.871 48.688 76.5182 48.8617 77.0445 49.209C77.5812 49.5563 77.9864 50.0088 78.26 50.5666C78.5442 51.1244 78.6863 51.7348 78.6863 52.3979C78.6863 52.5031 78.6863 52.6136 78.6863 52.7294C78.6863 52.8347 78.681 52.961 78.6705 53.1083H72.1506V52.1769H77.6128C77.5917 51.3665 77.3391 50.7403 76.855 50.2982C76.3814 49.8562 75.7815 49.6352 75.0553 49.6352C74.5817 49.6352 74.1397 49.7457 73.7292 49.9667C73.3293 50.1772 73.003 50.493 72.7505 50.9139C72.5084 51.3244 72.3874 51.8454 72.3874 52.4768V52.8873C72.3874 53.603 72.5136 54.1976 72.7662 54.6712C73.0188 55.1448 73.3503 55.4974 73.7608 55.7289C74.1818 55.9604 74.6186 56.0762 75.0711 56.0762C75.671 56.0762 76.1657 55.9447 76.5551 55.6815C76.9445 55.4079 77.2234 55.0343 77.3918 54.5607H78.4811C78.3442 55.0238 78.1232 55.4447 77.818 55.8236C77.5233 56.2025 77.1444 56.4972 76.6814 56.7077C76.2183 56.9182 75.6815 57.0234 75.0711 57.0234ZM87.179 56.834L84.1479 48.8774H85.3003L87.8262 55.7605L90.3521 48.8774H91.4888L88.4419 56.834H87.179ZM95.1697 57.0234C94.5277 57.0234 93.9909 56.9077 93.5594 56.6761C93.1384 56.4446 92.8227 56.1446 92.6122 55.7763C92.4123 55.4079 92.3123 55.0027 92.3123 54.5607C92.3123 54.0134 92.4491 53.5503 92.7227 53.1714C93.0069 52.7926 93.4016 52.5084 93.9067 52.319C94.4119 52.1295 95.0013 52.0348 95.6749 52.0348H97.8219C97.8219 51.5191 97.7429 51.0823 97.5851 50.7245C97.4272 50.3667 97.1957 50.0983 96.8904 49.9194C96.5852 49.7299 96.2011 49.6352 95.738 49.6352C95.2013 49.6352 94.7382 49.772 94.3488 50.0457C93.9594 50.3193 93.7173 50.7192 93.6226 51.2455H92.4701C92.5333 50.6877 92.7227 50.2193 93.0385 49.8404C93.3647 49.4615 93.7647 49.1774 94.2383 48.9879C94.7119 48.788 95.2118 48.688 95.738 48.688C96.4747 48.688 97.0746 48.8301 97.5377 49.1142C98.0008 49.3879 98.3481 49.7668 98.5796 50.2509C98.8112 50.735 98.9269 51.2928 98.9269 51.9243V56.834H97.9166L97.8534 55.3816C97.7587 55.6026 97.6272 55.8131 97.4588 56.0131C97.3009 56.213 97.1115 56.3867 96.8904 56.534C96.6799 56.6814 96.4326 56.7971 96.1485 56.8813C95.8643 56.9761 95.538 57.0234 95.1697 57.0234ZM95.296 56.0604C95.6854 56.0604 96.0327 55.9815 96.3379 55.8236C96.6536 55.6552 96.922 55.4395 97.143 55.1764C97.364 54.9133 97.5324 54.6186 97.6482 54.2923C97.764 53.9555 97.8219 53.6082 97.8219 53.2504V52.9662H95.7538C95.196 52.9662 94.7487 53.0346 94.4119 53.1714C94.0751 53.3083 93.8331 53.4924 93.6857 53.724C93.5384 53.9555 93.4647 54.2239 93.4647 54.5291C93.4647 54.8343 93.5331 55.1027 93.6699 55.3342C93.8068 55.5553 94.012 55.7342 94.2856 55.871C94.5698 55.9973 94.9066 56.0604 95.296 56.0604ZM101.015 56.834V45.4675H102.12V56.834H101.015ZM107.233 57.0234C106.633 57.0234 106.102 56.9077 105.639 56.6761C105.186 56.4341 104.834 56.071 104.581 55.5868C104.329 55.0922 104.202 54.4607 104.202 53.6924V48.8774H105.307V53.5661C105.307 54.4081 105.492 55.0343 105.86 55.4447C106.239 55.8552 106.76 56.0604 107.423 56.0604C107.896 56.0604 108.317 55.9499 108.686 55.7289C109.065 55.5079 109.359 55.1816 109.57 54.7501C109.791 54.3081 109.901 53.7713 109.901 53.1399V48.8774H111.006V56.834H109.996L109.933 55.4132C109.68 55.9289 109.312 56.3288 108.828 56.613C108.354 56.8866 107.823 57.0234 107.233 57.0234ZM116.666 57.0234C115.929 57.0234 115.276 56.8498 114.708 56.5025C114.15 56.1552 113.708 55.671 113.382 55.0501C113.066 54.4186 112.908 53.6819 112.908 52.8399C112.908 51.998 113.066 51.2665 113.382 50.6456C113.698 50.0246 114.14 49.5457 114.708 49.209C115.287 48.8617 115.95 48.688 116.697 48.688C117.465 48.688 118.113 48.8617 118.639 49.209C119.176 49.5563 119.581 50.0088 119.855 50.5666C120.139 51.1244 120.281 51.7348 120.281 52.3979C120.281 52.5031 120.281 52.6136 120.281 52.7294C120.281 52.8347 120.276 52.961 120.265 53.1083H113.745V52.1769H119.207C119.186 51.3665 118.934 50.7403 118.45 50.2982C117.976 49.8562 117.376 49.6352 116.65 49.6352C116.176 49.6352 115.734 49.7457 115.324 49.9667C114.924 50.1772 114.598 50.493 114.345 50.9139C114.103 51.3244 113.982 51.8454 113.982 52.4768V52.8873C113.982 53.603 114.108 54.1976 114.361 54.6712C114.613 55.1448 114.945 55.4974 115.355 55.7289C115.776 55.9604 116.213 56.0762 116.666 56.0762C117.266 56.0762 117.76 55.9447 118.15 55.6815C118.539 55.4079 118.818 55.0343 118.986 54.5607H120.076C119.939 55.0238 119.718 55.4447 119.413 55.8236C119.118 56.2025 118.739 56.4972 118.276 56.7077C117.813 56.9182 117.276 57.0234 116.666 57.0234ZM128.079 56.834L125.742 48.8774H126.863L128.758 55.6815H128.537L130.589 48.8774H131.852L133.904 55.6815H133.683L135.578 48.8774H136.698L134.362 56.834H133.241L131.11 49.7141H131.331L129.2 56.834H128.079ZM138.404 56.834V48.8774H139.493V56.834H138.404ZM138.957 46.9988C138.736 46.9988 138.546 46.9251 138.388 46.7778C138.231 46.6199 138.152 46.4252 138.152 46.1937C138.152 45.9516 138.225 45.7622 138.373 45.6254C138.53 45.478 138.72 45.4043 138.941 45.4043C139.162 45.4043 139.351 45.478 139.509 45.6254C139.667 45.7622 139.746 45.9516 139.746 46.1937C139.746 46.4252 139.667 46.6199 139.509 46.7778C139.362 46.9251 139.178 46.9988 138.957 46.9988ZM144.915 56.834C144.463 56.834 144.073 56.7656 143.747 56.6288C143.421 56.4814 143.168 56.2446 142.989 55.9184C142.821 55.5816 142.737 55.1237 142.737 54.5449V49.8246H141.348V48.8774H142.737L142.895 47.0304H143.842V48.8932H146.226V49.8246H143.842V54.5449C143.842 55.0711 143.947 55.429 144.158 55.6184C144.368 55.7973 144.742 55.8868 145.278 55.8868H146.099V56.834H144.915ZM147.943 56.834V45.4675H149.049V50.2982C149.322 49.7931 149.701 49.3984 150.185 49.1142C150.669 48.8301 151.201 48.688 151.78 48.688C152.38 48.688 152.901 48.809 153.343 49.0511C153.795 49.2932 154.142 49.6615 154.384 50.1562C154.637 50.6508 154.763 51.2823 154.763 52.0506V56.834H153.674V52.1769C153.674 51.3244 153.495 50.6929 153.137 50.2825C152.79 49.8615 152.274 49.651 151.59 49.651C151.117 49.651 150.685 49.7668 150.296 49.9983C149.917 50.2298 149.612 50.5666 149.38 51.0087C149.159 51.4402 149.049 51.9769 149.049 52.6189V56.834H147.943ZM17.8154 78.0234C17.0892 78.0234 16.4314 77.855 15.842 77.5182C15.2632 77.1709 14.8053 76.6868 14.4686 76.0659C14.1318 75.4344 13.9634 74.7029 13.9634 73.8715C13.9634 73.0085 14.1318 72.2665 14.4686 71.6456C14.8159 71.0246 15.2842 70.5457 15.8736 70.209C16.4629 69.8617 17.1207 69.688 17.8469 69.688C18.6047 69.688 19.273 69.8617 19.8518 70.209C20.4307 70.5457 20.8885 71.0246 21.2253 71.6456C21.5621 72.2665 21.7305 73.0085 21.7305 73.8715C21.7305 74.7029 21.5568 75.4344 21.2095 76.0659C20.8727 76.6868 20.4096 77.1709 19.8203 77.5182C19.2414 77.855 18.5731 78.0234 17.8154 78.0234ZM17.8311 77.0762C18.3258 77.0762 18.7783 76.9552 19.1888 76.7131C19.6098 76.4711 19.9466 76.1132 20.1992 75.6396C20.4623 75.1555 20.5938 74.5609 20.5938 73.8557C20.5938 73.14 20.4675 72.5454 20.2149 72.0718C19.9624 71.5982 19.6256 71.2456 19.2046 71.0141C18.7941 70.772 18.3416 70.651 17.8469 70.651C17.3733 70.651 16.926 70.772 16.505 71.0141C16.0841 71.2562 15.742 71.614 15.4789 72.0876C15.2263 72.5507 15.1 73.14 15.1 73.8557C15.1 74.5609 15.2263 75.1555 15.4789 75.6396C15.7315 76.1132 16.063 76.4711 16.4735 76.7131C16.8945 76.9552 17.347 77.0762 17.8311 77.0762ZM23.6224 81.3071V69.8774H24.6328L24.7275 71.314C24.8959 71.0299 25.1169 70.7668 25.3905 70.5247C25.6642 70.2721 25.9904 70.0721 26.3693 69.9248C26.7587 69.7669 27.2008 69.688 27.6954 69.688C28.4637 69.688 29.132 69.8722 29.7003 70.2405C30.2792 70.6089 30.7265 71.1088 31.0422 71.7403C31.358 72.3612 31.5158 73.0716 31.5158 73.8715C31.5158 74.6714 31.3527 75.387 31.0264 76.0185C30.7107 76.6394 30.2687 77.1288 29.7003 77.4867C29.132 77.8445 28.4584 78.0234 27.6796 78.0234C27.0061 78.0234 26.4114 77.8813 25.8957 77.5972C25.3905 77.3025 25.0011 76.892 24.7275 76.3658V81.3071H23.6224ZM27.6007 77.0604C28.148 77.0604 28.6268 76.9289 29.0373 76.6658C29.4583 76.4026 29.7898 76.0343 30.0319 75.5607C30.2739 75.0766 30.395 74.5082 30.395 73.8557C30.395 73.2137 30.2739 72.6507 30.0319 72.1665C29.7898 71.6824 29.4583 71.3088 29.0373 71.0457C28.6268 70.7825 28.148 70.651 27.6007 70.651C27.0534 70.651 26.564 70.7825 26.1325 71.0457C25.7115 71.3088 25.38 71.6824 25.138 72.1665C24.9064 72.6401 24.7906 73.2032 24.7906 73.8557C24.7906 74.4977 24.9064 75.0608 25.138 75.5449C25.38 76.029 25.7115 76.4026 26.1325 76.6658C26.564 76.9289 27.0534 77.0604 27.6007 77.0604ZM36.119 77.834C35.6665 77.834 35.2771 77.7656 34.9508 77.6288C34.6246 77.4814 34.372 77.2446 34.193 76.9184C34.0247 76.5816 33.9405 76.1237 33.9405 75.5449V70.8246H32.5512V69.8774H33.9405L34.0983 68.0304H35.0455V69.8932H37.4293V70.8246H35.0455V75.5449C35.0455 76.0711 35.1508 76.429 35.3613 76.6184C35.5718 76.7973 35.9454 76.8868 36.4821 76.8868H37.303V77.834H36.119ZM39.305 77.834V69.8774H40.3943V77.834H39.305ZM39.8575 67.9988C39.6365 67.9988 39.4471 67.9251 39.2892 67.7778C39.1314 67.6199 39.0524 67.4252 39.0524 67.1937C39.0524 66.9516 39.1261 66.7622 39.2734 66.6254C39.4313 66.478 39.6207 66.4043 39.8418 66.4043C40.0628 66.4043 40.2522 66.478 40.4101 66.6254C40.568 66.7622 40.6469 66.9516 40.6469 67.1937C40.6469 67.4252 40.568 67.6199 40.4101 67.7778C40.2627 67.9251 40.0786 67.9988 39.8575 67.9988ZM42.8009 77.834V69.8774H43.8113L43.8902 71.0772C44.1323 70.6352 44.4691 70.2932 44.9006 70.0511C45.3321 69.809 45.8109 69.688 46.3372 69.688C46.7266 69.688 47.0897 69.7459 47.4265 69.8617C47.7632 69.9774 48.0579 70.1511 48.3105 70.3826C48.5736 70.6142 48.7789 70.9141 48.9262 71.2825C49.1893 70.7878 49.5577 70.3984 50.0313 70.1142C50.5154 69.8301 51.0311 69.688 51.5784 69.688C52.1888 69.688 52.715 69.809 53.1571 70.0511C53.6096 70.2932 53.9622 70.6615 54.2148 71.1562C54.4674 71.6508 54.5937 72.277 54.5937 73.0348V77.834H53.4886V73.1611C53.4886 72.3191 53.3149 71.6929 52.9676 71.2825C52.6203 70.8615 52.1362 70.651 51.5152 70.651C51.0943 70.651 50.7101 70.7668 50.3628 70.9983C50.0155 71.2193 49.7418 71.5456 49.5419 71.9771C49.3419 72.3981 49.2419 72.9243 49.2419 73.5558V77.834H48.1369V73.1611C48.1369 72.3191 47.9632 71.6929 47.6159 71.2825C47.2791 70.8615 46.8002 70.651 46.1793 70.651C45.7478 70.651 45.3584 70.7668 45.0111 70.9983C44.6743 71.2193 44.4059 71.5508 44.2059 71.9929C44.006 72.4244 43.906 72.9611 43.906 73.6031V77.834H42.8009ZM56.8339 77.834V69.8774H57.9232V77.834H56.8339ZM57.3864 67.9988C57.1654 67.9988 56.976 67.9251 56.8181 67.7778C56.6602 67.6199 56.5813 67.4252 56.5813 67.1937C56.5813 66.9516 56.655 66.7622 56.8023 66.6254C56.9602 66.478 57.1496 66.4043 57.3707 66.4043C57.5917 66.4043 57.7811 66.478 57.939 66.6254C58.0968 66.7622 58.1758 66.9516 58.1758 67.1937C58.1758 67.4252 58.0968 67.6199 57.939 67.7778C57.7916 67.9251 57.6075 67.9988 57.3864 67.9988ZM59.7931 77.834V76.9184L64.3239 70.8089H59.872V69.8774H65.571V70.7931L61.0402 76.9184H65.65V77.834H59.7931ZM70.8623 78.0234C70.1256 78.0234 69.4731 77.8498 68.9048 77.5025C68.347 77.1552 67.9049 76.671 67.5787 76.0501C67.2629 75.4186 67.1051 74.6819 67.1051 73.8399C67.1051 72.998 67.2629 72.2665 67.5787 71.6456C67.8944 71.0246 68.3364 70.5457 68.9048 70.209C69.4836 69.8617 70.1467 69.688 70.8939 69.688C71.6622 69.688 72.3094 69.8617 72.8357 70.209C73.3724 70.5563 73.7776 71.0088 74.0513 71.5666C74.3354 72.1244 74.4775 72.7348 74.4775 73.3979C74.4775 73.5031 74.4775 73.6136 74.4775 73.7294C74.4775 73.8347 74.4722 73.961 74.4617 74.1083H67.9418V73.1769H73.404C73.3829 72.3665 73.1304 71.7403 72.6462 71.2982C72.1726 70.8562 71.5727 70.6352 70.8465 70.6352C70.3729 70.6352 69.9309 70.7457 69.5204 70.9667C69.1205 71.1772 68.7943 71.493 68.5417 71.9139C68.2996 72.3244 68.1786 72.8454 68.1786 73.4768V73.8873C68.1786 74.603 68.3049 75.1976 68.5575 75.6712C68.81 76.1448 69.1416 76.4974 69.552 76.7289C69.973 76.9604 70.4098 77.0762 70.8623 77.0762C71.4622 77.0762 71.9569 76.9447 72.3463 76.6815C72.7357 76.4079 73.0146 76.0343 73.183 75.5607H74.2723C74.1355 76.0238 73.9144 76.4447 73.6092 76.8236C73.3145 77.2025 72.9357 77.4972 72.4726 77.7077C72.0095 77.9182 71.4727 78.0234 70.8623 78.0234ZM79.7593 78.0234C78.991 78.0234 78.3174 77.8445 77.7386 77.4867C77.1703 77.1183 76.7282 76.6184 76.4125 75.9869C76.0968 75.3555 75.9389 74.6398 75.9389 73.8399C75.9389 73.0401 76.0968 72.3297 76.4125 71.7087C76.7282 71.0772 77.1755 70.5826 77.7544 70.2247C78.3332 69.8669 79.0068 69.688 79.7751 69.688C80.4487 69.688 81.038 69.8353 81.5432 70.13C82.0589 70.4142 82.4536 70.8194 82.7272 71.3456V66.4675H83.8323V77.834H82.8219L82.7272 76.3974C82.5588 76.671 82.3378 76.9341 82.0642 77.1867C81.8011 77.4393 81.4748 77.6445 81.0854 77.8024C80.7065 77.9498 80.2645 78.0234 79.7593 78.0234ZM79.854 77.0604C80.4118 77.0604 80.8959 76.9289 81.3064 76.6658C81.7274 76.4026 82.0536 76.029 82.2852 75.5449C82.5272 75.0608 82.6483 74.4977 82.6483 73.8557C82.6483 73.2137 82.5272 72.6507 82.2852 72.1665C82.0536 71.6824 81.7274 71.3088 81.3064 71.0457C80.8959 70.7825 80.4118 70.651 79.854 70.651C79.3067 70.651 78.8226 70.7825 78.4016 71.0457C77.9806 71.3088 77.6491 71.6824 77.4071 72.1665C77.1755 72.6401 77.0598 73.2032 77.0598 73.8557C77.0598 74.5082 77.1808 75.0766 77.4228 75.5607C77.6649 76.0343 77.9964 76.4026 78.4174 76.6658C78.8384 76.9289 79.3173 77.0604 79.854 77.0604ZM93.4387 77.834C92.9861 77.834 92.5967 77.7656 92.2705 77.6288C91.9442 77.4814 91.6916 77.2446 91.5127 76.9184C91.3443 76.5816 91.2601 76.1237 91.2601 75.5449V70.8246H89.8709V69.8774H91.2601L91.418 68.0304H92.3652V69.8932H94.749V70.8246H92.3652V75.5449C92.3652 76.0711 92.4704 76.429 92.6809 76.6184C92.8914 76.7973 93.265 76.8868 93.8018 76.8868H94.6227V77.834H93.4387ZM96.4668 77.834V69.8774H97.4771L97.5561 71.4088C97.7245 71.0404 97.9507 70.7299 98.2349 70.4773C98.5191 70.2247 98.8611 70.03 99.2611 69.8932C99.661 69.7564 100.114 69.688 100.619 69.688V70.8404H100.192C99.8557 70.8404 99.5294 70.8878 99.2137 70.9825C98.898 71.0667 98.6191 71.2141 98.377 71.4245C98.1349 71.635 97.9402 71.9192 97.7929 72.277C97.6455 72.6349 97.5719 73.0822 97.5719 73.6189V77.834H96.4668ZM104.713 78.0234C104.071 78.0234 103.534 77.9077 103.102 77.6761C102.681 77.4446 102.366 77.1446 102.155 76.7763C101.955 76.4079 101.855 76.0027 101.855 75.5607C101.855 75.0134 101.992 74.5503 102.266 74.1714C102.55 73.7926 102.945 73.5084 103.45 73.319C103.955 73.1295 104.544 73.0348 105.218 73.0348H107.365C107.365 72.5191 107.286 72.0823 107.128 71.7245C106.97 71.3667 106.739 71.0983 106.433 70.9194C106.128 70.7299 105.744 70.6352 105.281 70.6352C104.744 70.6352 104.281 70.772 103.892 71.0457C103.502 71.3193 103.26 71.7192 103.166 72.2455H102.013C102.076 71.6877 102.266 71.2193 102.581 70.8404C102.908 70.4615 103.308 70.1774 103.781 69.9879C104.255 69.788 104.755 69.688 105.281 69.688C106.018 69.688 106.618 69.8301 107.081 70.1142C107.544 70.3879 107.891 70.7668 108.123 71.2509C108.354 71.735 108.47 72.2928 108.47 72.9243V77.834H107.46L107.396 76.3816C107.302 76.6026 107.17 76.8131 107.002 77.0131C106.844 77.213 106.654 77.3867 106.433 77.534C106.223 77.6814 105.976 77.7971 105.691 77.8813C105.407 77.9761 105.081 78.0234 104.713 78.0234ZM104.839 77.0604C105.228 77.0604 105.576 76.9815 105.881 76.8236C106.197 76.6552 106.465 76.4395 106.686 76.1764C106.907 75.9133 107.075 75.6186 107.191 75.2923C107.307 74.9555 107.365 74.6082 107.365 74.2504V73.9662H105.297C104.739 73.9662 104.292 74.0346 103.955 74.1714C103.618 74.3083 103.376 74.4924 103.229 74.724C103.081 74.9555 103.008 75.2239 103.008 75.5291C103.008 75.8343 103.076 76.1027 103.213 76.3342C103.35 76.5553 103.555 76.7342 103.829 76.871C104.113 76.9973 104.45 77.0604 104.839 77.0604ZM114.031 78.0234C113.263 78.0234 112.589 77.8445 112.01 77.4867C111.442 77.1183 111 76.6184 110.684 75.9869C110.368 75.3555 110.21 74.6398 110.21 73.8399C110.21 73.0401 110.368 72.3297 110.684 71.7087C111 71.0772 111.447 70.5826 112.026 70.2247C112.605 69.8669 113.278 69.688 114.047 69.688C114.72 69.688 115.31 69.8353 115.815 70.13C116.33 70.4142 116.725 70.8194 116.999 71.3456V66.4675H118.104V77.834H117.093L116.999 76.3974C116.83 76.671 116.609 76.9341 116.336 77.1867C116.073 77.4393 115.746 77.6445 115.357 77.8024C114.978 77.9498 114.536 78.0234 114.031 78.0234ZM114.126 77.0604C114.683 77.0604 115.167 76.9289 115.578 76.6658C115.999 76.4026 116.325 76.029 116.557 75.5449C116.799 75.0608 116.92 74.4977 116.92 73.8557C116.92 73.2137 116.799 72.6507 116.557 72.1665C116.325 71.6824 115.999 71.3088 115.578 71.0457C115.167 70.7825 114.683 70.651 114.126 70.651C113.578 70.651 113.094 70.7825 112.673 71.0457C112.252 71.3088 111.921 71.6824 111.679 72.1665C111.447 72.6401 111.331 73.2032 111.331 73.8557C111.331 74.5082 111.452 75.0766 111.694 75.5607C111.936 76.0343 112.268 76.4026 112.689 76.6658C113.11 76.9289 113.589 77.0604 114.126 77.0604ZM123.757 78.0234C123.021 78.0234 122.368 77.8498 121.8 77.5025C121.242 77.1552 120.8 76.671 120.474 76.0501C120.158 75.4186 120 74.6819 120 73.8399C120 72.998 120.158 72.2665 120.474 71.6456C120.789 71.0246 121.231 70.5457 121.8 70.209C122.379 69.8617 123.042 69.688 123.789 69.688C124.557 69.688 125.204 69.8617 125.731 70.209C126.267 70.5563 126.673 71.0088 126.946 71.5666C127.23 72.1244 127.373 72.7348 127.373 73.3979C127.373 73.5031 127.373 73.6136 127.373 73.7294C127.373 73.8347 127.367 73.961 127.357 74.1083H120.837V73.1769H126.299C126.278 72.3665 126.025 71.7403 125.541 71.2982C125.068 70.8562 124.468 70.6352 123.742 70.6352C123.268 70.6352 122.826 70.7457 122.415 70.9667C122.016 71.1772 121.689 71.493 121.437 71.9139C121.195 72.3244 121.074 72.8454 121.074 73.4768V73.8873C121.074 74.603 121.2 75.1976 121.452 75.6712C121.705 76.1448 122.037 76.4974 122.447 76.7289C122.868 76.9604 123.305 77.0762 123.757 77.0762C124.357 77.0762 124.852 76.9447 125.241 76.6815C125.631 76.4079 125.91 76.0343 126.078 75.5607H127.167C127.03 76.0238 126.809 76.4447 126.504 76.8236C126.21 77.2025 125.831 77.4972 125.368 77.7077C124.905 77.9182 124.368 78.0234 123.757 78.0234ZM132.102 78.0234C131.47 78.0234 130.913 77.9182 130.428 77.7077C129.955 77.4972 129.571 77.1973 129.276 76.8078C128.992 76.4079 128.818 75.9343 128.755 75.387H129.892C129.955 75.6922 130.076 75.9711 130.255 76.2237C130.444 76.4763 130.697 76.6815 131.012 76.8394C131.328 76.9868 131.702 77.0604 132.133 77.0604C132.533 77.0604 132.86 77.0025 133.112 76.8868C133.375 76.7605 133.57 76.5974 133.696 76.3974C133.833 76.1869 133.901 75.9554 133.901 75.7028C133.901 75.3555 133.817 75.0871 133.649 74.8976C133.491 74.6977 133.259 74.5503 132.954 74.4556C132.649 74.3609 132.281 74.2714 131.849 74.1872C131.491 74.1241 131.149 74.0399 130.823 73.9346C130.497 73.8294 130.202 73.6926 129.939 73.5242C129.686 73.3558 129.486 73.1453 129.339 72.8927C129.192 72.6296 129.118 72.3244 129.118 71.9771C129.118 71.5245 129.229 71.1299 129.45 70.7931C129.681 70.4458 130.007 70.1774 130.428 69.9879C130.849 69.788 131.344 69.688 131.912 69.688C132.723 69.688 133.386 69.8932 133.901 70.3037C134.417 70.7036 134.717 71.293 134.801 72.0718H133.696C133.654 71.6403 133.475 71.2982 133.159 71.0457C132.844 70.7931 132.418 70.6668 131.881 70.6668C131.355 70.6668 130.949 70.7773 130.665 70.9983C130.392 71.2088 130.255 71.4982 130.255 71.8666C130.255 72.0981 130.328 72.2981 130.476 72.4665C130.623 72.6349 130.839 72.7822 131.123 72.9085C131.418 73.0243 131.776 73.1243 132.197 73.2085C132.702 73.3032 133.165 73.4295 133.586 73.5873C134.017 73.7347 134.365 73.9662 134.628 74.282C134.901 74.5872 135.038 75.0239 135.038 75.5923C135.049 76.0659 134.933 76.4868 134.691 76.8552C134.449 77.2236 134.107 77.513 133.665 77.7235C133.223 77.9234 132.702 78.0234 132.102 78.0234ZM137.361 77.9129C137.129 77.9129 136.934 77.834 136.777 77.6761C136.629 77.5182 136.556 77.3235 136.556 77.092C136.556 76.8605 136.629 76.671 136.777 76.5237C136.934 76.3658 137.129 76.2869 137.361 76.2869C137.592 76.2869 137.782 76.3658 137.929 76.5237C138.087 76.671 138.166 76.8657 138.166 77.1078C138.166 77.3288 138.087 77.5182 137.929 77.6761C137.782 77.834 137.592 77.9129 137.361 77.9129Z" fill="black"/>
</svg>
