<svg width="530" height="445" viewBox="0 0 530 445" fill="none" xmlns="http://www.w3.org/2000/svg">
<path d="M479.983 172.484C483.067 174.951 489.202 178.109 490.461 176.536C490.836 176.067 525.259 123.558 525.72 122.982L510.908 112.467C510.446 113.044 476.446 164.503 475.913 165.168C474.653 166.741 476.899 170.017 479.983 172.484Z" fill="#ECFFEE"/>
<path fill-rule="evenodd" clip-rule="evenodd" d="M488.657 173.838C488.256 173.73 487.732 173.547 487.102 173.274C485.267 172.477 483.191 171.208 481.858 170.142C480.505 169.059 479.45 167.883 478.897 166.955C478.787 166.77 478.707 166.612 478.651 166.484C478.715 166.39 478.78 166.293 478.842 166.202C478.854 166.183 478.866 166.165 478.879 166.147C479.161 165.728 479.556 165.136 480.048 164.399C481.031 162.925 482.407 160.855 484.042 158.391C487.312 153.463 491.627 146.949 495.939 140.44L496.88 139.019C500.873 132.991 504.798 127.065 507.821 122.508C509.391 120.141 510.717 118.145 511.682 116.696L521.607 123.742C521.6 123.753 521.592 123.765 521.584 123.776C520.596 125.271 519.211 127.373 517.562 129.879C514.263 134.891 509.905 141.525 505.55 148.153L504.197 150.214C500.304 156.139 496.502 161.925 493.557 166.404C491.913 168.903 490.537 170.993 489.561 172.472C489.203 173.014 488.9 173.472 488.657 173.838ZM489.386 173.96C489.389 173.963 489.359 173.965 489.288 173.96C489.348 173.954 489.383 173.957 489.386 173.96ZM525.72 122.982C525.712 122.992 525.693 123.019 525.663 123.062C524.824 124.28 515.531 138.425 506.705 151.86C498.469 164.396 490.639 176.314 490.461 176.536C489.202 178.109 483.067 174.951 479.983 172.484C476.899 170.017 474.653 166.741 475.913 165.168C476.189 164.823 485.452 150.839 494.378 137.363C500.481 128.15 506.427 119.174 509.234 114.958C510.086 113.679 510.649 112.839 510.84 112.562C510.876 112.511 510.898 112.479 510.908 112.467L525.72 122.982Z" fill="#002A16"/>
<path d="M479.983 263.202C483.067 260.735 489.202 257.577 490.461 259.15C490.836 259.619 525.259 312.128 525.72 312.704L510.908 323.219C510.446 322.643 476.446 271.183 475.913 270.518C474.653 268.945 476.899 265.669 479.983 263.202Z" fill="#ECFFEE"/>
<path fill-rule="evenodd" clip-rule="evenodd" d="M488.657 261.848C488.256 261.956 487.732 262.139 487.102 262.412C485.267 263.209 483.191 264.478 481.858 265.544C480.505 266.627 479.45 267.803 478.897 268.731C478.787 268.916 478.707 269.074 478.651 269.202C478.715 269.296 478.78 269.393 478.842 269.484C478.854 269.503 478.866 269.521 478.879 269.539C479.161 269.958 479.556 270.55 480.048 271.287C481.031 272.761 482.407 274.831 484.042 277.295C487.312 282.223 491.627 288.737 495.939 295.246L496.88 296.667C500.873 302.695 504.798 308.621 507.821 313.178C509.391 315.545 510.717 317.541 511.682 318.99L521.607 311.945C521.6 311.933 521.592 311.921 521.584 311.91C520.596 310.415 519.211 308.313 517.562 305.807C514.263 300.795 509.905 294.161 505.55 287.533L504.197 285.472C500.304 279.547 496.502 273.761 493.557 269.282C491.913 266.783 490.537 264.693 489.561 263.214C489.203 262.672 488.9 262.214 488.657 261.848ZM489.386 261.726C489.389 261.723 489.359 261.721 489.288 261.726C489.348 261.732 489.383 261.729 489.386 261.726ZM525.72 312.704C525.712 312.694 525.693 312.667 525.663 312.624C524.824 311.406 515.531 297.261 506.705 283.826C498.469 271.29 490.639 259.372 490.461 259.15C489.202 257.577 483.067 260.735 479.983 263.202C476.899 265.669 474.653 268.945 475.913 270.518C476.189 270.863 485.452 284.847 494.378 298.323C500.481 307.536 506.427 316.512 509.234 320.728C510.086 322.007 510.649 322.847 510.84 323.124C510.876 323.175 510.898 323.207 510.908 323.219L525.72 312.704Z" fill="#002A16"/>
<path d="M522.508 112.596C526.433 115.735 527.615 120.779 525.147 123.86C522.68 126.941 517.498 126.894 513.573 123.754C509.647 120.614 508.466 115.571 510.933 112.489C513.4 109.408 518.583 109.456 522.508 112.596Z" fill="#ECFFEE"/>
<path fill-rule="evenodd" clip-rule="evenodd" d="M522.805 121.986C523.84 120.694 523.823 117.489 520.633 114.937C517.442 112.385 514.311 113.071 513.276 114.363C512.241 115.656 512.257 118.86 515.448 121.412C518.638 123.964 521.77 123.278 522.805 121.986ZM525.147 123.86C527.615 120.779 526.433 115.735 522.508 112.596C518.583 109.456 513.4 109.408 510.933 112.489C508.466 115.571 509.647 120.614 513.573 123.754C517.498 126.894 522.68 126.941 525.147 123.86Z" fill="#002A16"/>
<path d="M522.508 323.091C526.433 319.951 527.615 314.908 525.147 311.826C522.68 308.745 517.498 308.793 513.573 311.932C509.647 315.072 508.466 320.116 510.933 323.197C513.4 326.278 518.583 326.231 522.508 323.091Z" fill="#ECFFEE"/>
<path fill-rule="evenodd" clip-rule="evenodd" d="M522.805 313.7C523.84 314.993 523.823 318.197 520.633 320.749C517.442 323.301 514.311 322.615 513.276 321.323C512.241 320.03 512.257 316.826 515.448 314.274C518.638 311.722 521.77 312.408 522.805 313.7ZM525.147 311.826C527.615 314.908 526.433 319.951 522.508 323.091C518.583 326.231 513.4 326.278 510.933 323.197C508.466 320.116 509.647 315.072 513.573 311.932C517.498 308.793 522.68 308.745 525.147 311.826Z" fill="#002A16"/>
<path d="M195.808 415.521C298.751 415.521 382.202 332.113 382.202 229.225C382.202 126.336 298.751 42.9286 195.808 42.9286C92.8654 42.9286 9.414 126.336 9.414 229.225C9.414 332.113 92.8654 415.521 195.808 415.521Z" fill="#002A16"/>
<path d="M372.789 219.817C372.789 322.705 289.337 406.112 186.394 406.112C83.4516 406.112 0 322.705 0 219.817C0 116.928 83.4516 33.5206 186.394 33.5206C289.337 33.5206 372.789 116.928 372.789 219.817Z" fill="#ECFFEE"/>
<path fill-rule="evenodd" clip-rule="evenodd" d="M186.394 403.112C287.682 403.112 369.789 321.046 369.789 219.817C369.789 118.587 287.682 36.5206 186.394 36.5206C85.1069 36.5206 3 118.587 3 219.817C3 321.046 85.1069 403.112 186.394 403.112ZM186.394 406.112C289.337 406.112 372.789 322.705 372.789 219.817C372.789 116.928 289.337 33.5206 186.394 33.5206C83.4516 33.5206 0 116.928 0 219.817C0 322.705 83.4516 406.112 186.394 406.112Z" fill="#002A16"/>
<path d="M344.547 219.817C344.547 307.116 273.74 377.886 186.394 377.886C99.0489 377.886 28.2415 307.116 28.2415 219.817C28.2415 132.517 99.0489 61.7472 186.394 61.7472C273.74 61.7472 344.547 132.517 344.547 219.817Z" fill="#002A16"/>
<path d="M139.346 149.932C143.252 146.028 149.585 146.028 153.491 149.932L176.78 173.208C180.686 177.113 180.686 183.443 176.78 187.347L153.491 210.623C149.585 214.527 143.252 214.527 139.346 210.623L116.057 187.347C112.151 183.443 112.151 177.113 116.057 173.208L139.346 149.932Z" fill="#A8FFD4"/>
<path d="M178.373 127.152C182.279 123.248 188.613 123.248 192.519 127.152L207.69 142.315C211.596 146.219 211.596 152.549 207.69 156.453L192.519 171.616C188.613 175.521 182.279 175.521 178.373 171.616L163.202 156.453C159.296 152.549 159.296 146.219 163.202 142.315L178.373 127.152Z" fill="#A8FFD4"/>
<path opacity="0.5" d="M217.401 149.932C221.307 146.028 227.64 146.028 231.547 149.932L254.835 173.208C258.742 177.113 258.742 183.443 254.835 187.347L231.547 210.623C227.64 214.527 221.307 214.527 217.401 210.623L194.112 187.347C190.206 183.443 190.206 177.113 194.112 173.208L217.401 149.932Z" fill="#A8FFD4"/>
<path opacity="0.9" d="M248.245 197.118C252.151 193.214 258.485 193.214 262.391 197.118L277.496 212.215C281.402 216.12 281.402 222.45 277.496 226.354L262.391 241.451C258.485 245.355 252.151 245.355 248.245 241.451L233.14 226.354C229.233 222.45 229.233 216.12 233.14 212.215L248.245 197.118Z" fill="#A8FFD4"/>
<path d="M217.401 227.946C221.307 224.042 227.64 224.042 231.547 227.946L254.835 251.222C258.742 255.126 258.742 261.456 254.835 265.36L231.547 288.637C227.64 292.541 221.307 292.541 217.401 288.637L194.112 265.36C190.206 261.456 190.206 255.126 194.112 251.222L217.401 227.946Z" fill="#A8FFD4"/>
<path opacity="0.7" d="M178.373 266.953C182.279 263.049 188.612 263.049 192.519 266.953L209.877 284.302C213.783 288.206 213.783 294.536 209.877 298.44L192.519 315.789C188.612 319.693 182.279 319.693 178.373 315.789L161.015 298.44C157.109 294.536 157.109 288.206 161.015 284.302L178.373 266.953Z" fill="#A8FFD4"/>
<path d="M111.582 200.197C115.488 196.293 121.822 196.293 125.728 200.197L137.753 212.216C141.659 216.12 141.659 222.45 137.753 226.354L125.728 238.373C121.822 242.277 115.488 242.277 111.582 238.373L99.5572 226.354C95.6509 222.45 95.6509 216.12 99.5571 212.216L111.582 200.197Z" fill="#A8FFD4"/>
<path d="M215.808 212.215L192.519 188.939C188.613 185.035 182.279 185.035 178.373 188.939L155.084 212.215C151.178 216.119 151.178 222.449 155.084 226.353L178.373 249.63C182.279 253.534 188.613 253.534 192.519 249.63L215.808 226.353C219.714 222.449 219.714 216.119 215.808 212.215Z" fill="#ECFFEE"/>
<path d="M178.373 188.939C182.279 185.035 188.613 185.035 192.519 188.939L215.807 212.215C219.714 216.12 219.714 222.45 215.807 226.354L192.519 249.63C188.613 253.534 182.279 253.534 178.373 249.63L155.084 226.354C151.178 222.45 151.178 216.12 155.084 212.215L178.373 188.939Z" fill="#ECFFEE"/>
<path d="M139.346 227.946C143.252 224.042 149.585 224.042 153.492 227.946L176.78 251.222C180.687 255.126 180.687 261.456 176.78 265.36L153.492 288.637C149.585 292.541 143.252 292.541 139.346 288.637L116.057 265.36C112.151 261.456 112.151 255.126 116.057 251.222L139.346 227.946Z" fill="#A8FFD4"/>
<path d="M291.96 127.67C294.488 125.08 298.585 125.08 301.113 127.67L313.469 140.328C315.996 142.917 315.996 147.115 313.469 149.704L301.113 162.362C298.585 164.951 294.488 164.951 291.96 162.362L279.604 149.704C277.077 147.115 277.077 142.917 279.604 140.328L291.96 127.67Z" fill="#149455"/>
<path d="M78.6972 250.358C80.4664 248.526 83.3348 248.526 85.104 250.358L93.7531 259.311C95.5223 261.142 95.5223 264.112 93.7531 265.943L85.104 274.896C83.3348 276.728 80.4664 276.728 78.6972 274.896L70.0481 265.943C68.2789 264.112 68.2789 261.142 70.0481 259.311L78.6972 250.358Z" fill="#149455"/>
<path d="M139.718 101.331C143.04 99.5699 146.638 103.167 144.876 106.486L142.112 111.694C141.519 112.812 141.519 114.15 142.112 115.268L144.876 120.475C146.638 123.795 143.04 127.392 139.718 125.63L134.508 122.868C133.39 122.275 132.05 122.275 130.932 122.868L125.722 125.63C122.4 127.392 118.802 123.795 120.564 120.475L123.328 115.268C123.921 114.15 123.921 112.812 123.328 111.694L120.564 106.486C118.802 103.167 122.4 99.5699 125.722 101.331L130.932 104.094C132.05 104.687 133.39 104.687 134.508 104.094L139.718 101.331Z" fill="#A8FFD4"/>
<path d="M200.046 344.014H153.915C152.616 344.014 151.563 345.067 151.563 346.366C151.563 347.665 152.616 348.718 153.915 348.718H200.046C201.345 348.718 202.398 347.665 202.398 346.366C202.398 345.067 201.345 344.014 200.046 344.014Z" fill="#A8FFD4"/>
<path d="M243.35 93.7374H204.75C203.451 93.7374 202.398 94.7906 202.398 96.0896C202.398 97.3887 203.451 98.4419 204.75 98.4419H243.35C244.649 98.4419 245.702 97.3887 245.702 96.0896C245.702 94.7906 244.649 93.7374 243.35 93.7374Z" fill="#149455"/>
<path d="M89.9037 164.304H62.601C61.3019 164.304 60.2488 165.357 60.2488 166.656C60.2488 167.955 61.3019 169.008 62.601 169.008H89.9037C91.2028 169.008 92.2559 167.955 92.2559 166.656C92.2559 165.357 91.2028 164.304 89.9037 164.304Z" fill="#A8FFD4"/>
<path opacity="0.3" d="M322.425 262.156H291.357C290.058 262.156 289.005 263.209 289.005 264.508C289.005 265.807 290.058 266.86 291.357 266.86H322.425C323.724 266.86 324.778 265.807 324.778 264.508C324.778 263.209 323.724 262.156 322.425 262.156Z" fill="#A8FFD4"/>
<path d="M279.122 262.156H267.823C266.524 262.156 265.471 263.209 265.471 264.508C265.471 265.807 266.524 266.86 267.823 266.86H279.122C280.421 266.86 281.475 265.807 281.475 264.508C281.475 263.209 280.421 262.156 279.122 262.156Z" fill="#A8FFD4"/>
<path d="M243.81 301.446L266.167 307.645C269.851 308.666 270.141 313.775 266.596 315.206L266.301 315.325C260.349 317.728 255.607 322.413 253.135 328.335L252.693 329.395C251.23 332.9 246.16 332.584 245.145 328.924L238.885 306.369C238.053 303.372 240.811 300.615 243.81 301.446Z" fill="#A8FFD4"/>
<path d="M354.902 224.521C354.902 306.446 368.823 388.392 401.587 415.521C411.026 415.521 430.468 415.521 439.33 415.521C479.007 415.521 511.172 330.007 511.172 224.521C511.172 119.035 479.007 33.5206 439.33 33.5206C422.025 33.5207 403.061 33.5207 403.061 33.5207C369.648 62.9013 354.902 147.221 354.902 224.521Z" fill="#ECFFEE"/>
<path fill-rule="evenodd" clip-rule="evenodd" d="M403.061 33.5207L439.33 33.5206C479.007 33.5206 511.172 119.035 511.172 224.521C511.172 330.007 479.007 415.521 439.33 415.521H401.587C368.823 388.392 354.902 306.446 354.902 224.521C354.902 147.221 369.648 62.9013 403.061 33.5207ZM402.686 412.521C387.542 399.403 376.309 373.347 368.887 339.919C361.372 306.076 357.902 265.338 357.902 224.521C357.902 186.038 361.575 145.865 369.376 111.719C377.078 78.009 388.676 50.7673 404.21 36.5207L439.33 36.5206C448.087 36.5206 456.786 41.228 465.053 50.5239C473.317 59.8169 480.896 73.4347 487.322 90.5194C500.166 124.667 508.172 172.043 508.172 224.521C508.172 276.999 500.166 324.375 487.322 358.522C480.896 375.607 473.317 389.225 465.053 398.518C456.786 407.814 448.087 412.521 439.33 412.521H402.686Z" fill="#002A16"/>
<path d="M330.426 224.521C330.426 330.007 362.669 415.521 402.442 415.521C442.216 415.521 474.458 330.007 474.458 224.521C474.458 119.035 442.216 33.5206 402.442 33.5206C362.669 33.5206 330.426 119.035 330.426 224.521Z" fill="#ECFFEE"/>
<path fill-rule="evenodd" clip-rule="evenodd" d="M354.326 358.52C341.451 324.373 333.426 276.998 333.426 224.521C333.426 172.044 341.451 124.669 354.326 90.5216C360.768 73.4374 368.366 59.8197 376.65 50.5266C384.936 41.231 393.658 36.5206 402.442 36.5206C411.226 36.5206 419.948 41.231 428.235 50.5266C436.519 59.8197 444.117 73.4374 450.558 90.5216C463.433 124.669 471.458 172.044 471.458 224.521C471.458 276.998 463.433 324.373 450.558 358.52C444.117 375.604 436.519 389.222 428.235 398.515C419.948 407.811 411.226 412.521 402.442 412.521C393.658 412.521 384.936 407.811 376.65 398.515C368.366 389.222 360.768 375.604 354.326 358.52ZM402.442 415.521C362.669 415.521 330.426 330.007 330.426 224.521C330.426 119.035 362.669 33.5206 402.442 33.5206C442.216 33.5206 474.458 119.035 474.458 224.521C474.458 330.007 442.216 415.521 402.442 415.521Z" fill="#002A16"/>
<path d="M337 224.521C337 294.436 347.745 364.369 372.275 387.521C379.343 387.521 393.576 387.521 400.211 387.521C429.918 387.521 454 314.543 454 224.521C454 134.499 429.918 61.5206 400.211 61.5206C387.255 61.5207 372.168 61.5207 372.168 61.5207C347.151 86.5941 337 158.553 337 224.521Z" fill="#ECFFEE"/>
<path fill-rule="evenodd" clip-rule="evenodd" d="M372.168 61.5207L400.211 61.5206C429.918 61.5206 454 134.499 454 224.521C454 314.543 429.918 387.521 400.211 387.521H372.275C347.745 364.369 337 294.436 337 224.521C337 158.553 347.151 86.5941 372.168 61.5207ZM373.495 384.521C368.137 379.138 363.351 371.157 359.192 360.982C354.83 350.31 351.234 337.412 348.382 322.976C342.678 294.104 340 259.347 340 224.521C340 191.669 342.529 157.386 348.148 128.254C350.958 113.688 354.528 100.472 358.908 89.3937C363.086 78.8285 367.939 70.3684 373.438 64.5207L400.211 64.5206C406.312 64.5206 412.612 68.2655 418.783 76.1753C424.925 84.0479 430.587 95.6266 435.397 110.203C445.006 139.322 451 179.74 451 224.521C451 269.302 445.006 309.72 435.397 338.839C430.587 353.415 424.925 364.994 418.783 372.866C412.612 380.776 406.312 384.521 400.211 384.521H373.495Z" fill="#002A16"/>
<path d="M319 224.521C319 314.543 342.729 387.521 372 387.521C401.271 387.521 425 314.543 425 224.521C425 134.499 401.271 61.5206 372 61.5206C342.729 61.5206 319 134.499 319 224.521Z" fill="#ECFFEE"/>
<path fill-rule="evenodd" clip-rule="evenodd" d="M337.376 338.852C327.907 309.728 322 269.306 322 224.521C322 179.736 327.907 139.314 337.376 110.19C342.117 95.6114 347.696 84.0311 353.748 76.1584C359.833 68.243 366.028 64.5206 372 64.5206C377.972 64.5206 384.167 68.243 390.252 76.1584C396.304 84.0311 401.883 95.6114 406.624 110.19C416.093 139.314 422 179.736 422 224.521C422 269.306 416.093 309.728 406.624 338.852C401.883 353.43 396.304 365.011 390.252 372.883C384.167 380.799 377.972 384.521 372 384.521C366.028 384.521 359.833 380.799 353.748 372.883C347.696 365.011 342.117 353.43 337.376 338.852ZM372 387.521C342.729 387.521 319 314.543 319 224.521C319 134.499 342.729 61.5206 372 61.5206C401.271 61.5206 425 134.499 425 224.521C425 314.543 401.271 387.521 372 387.521Z" fill="#002A16"/>
<path d="M382 49.5206H395V64.5206H382V49.5206Z" fill="#ECFFEE"/>
<path fill-rule="evenodd" clip-rule="evenodd" d="M392 52.5206H385V61.5206H392V52.5206ZM382 49.5206V64.5206H395V49.5206H382Z" fill="#002A16"/>
<path d="M382 384.521H395V399.521H382V384.521Z" fill="#ECFFEE"/>
<path fill-rule="evenodd" clip-rule="evenodd" d="M392 387.521H385V396.521H392V387.521ZM382 384.521V399.521H395V384.521H382Z" fill="#002A16"/>
<path fill-rule="evenodd" clip-rule="evenodd" d="M438.455 219.905C436.86 219.905 435.303 221.397 435.303 223.58C435.303 225.764 436.86 227.255 438.455 227.255H444.158V230.255H438.455C434.911 230.255 432.303 227.113 432.303 223.58C432.303 220.048 434.911 216.905 438.455 216.905H444.158V219.905H438.455Z" fill="#002A16"/>
<path d="M449.806 223.58C449.806 227.218 447.278 230.166 444.158 230.166C441.039 230.166 438.51 227.218 438.51 223.58C438.51 219.943 441.039 216.994 444.158 216.994C447.278 216.994 449.806 219.943 449.806 223.58Z" fill="#ECFFEE"/>
<path fill-rule="evenodd" clip-rule="evenodd" d="M444.158 227.166C445.205 227.166 446.806 226.01 446.806 223.58C446.806 221.151 445.205 219.994 444.158 219.994C443.111 219.994 441.51 221.151 441.51 223.58C441.51 226.01 443.111 227.166 444.158 227.166ZM444.158 230.166C447.278 230.166 449.806 227.218 449.806 223.58C449.806 219.943 447.278 216.994 444.158 216.994C441.039 216.994 438.51 219.943 438.51 223.58C438.51 227.218 441.039 230.166 444.158 230.166Z" fill="#002A16"/>
<path fill-rule="evenodd" clip-rule="evenodd" d="M429.545 146.067C428.549 147.311 428.74 149.459 430.447 150.824C432.153 152.189 434.291 151.904 435.287 150.661C435.528 150.36 436.295 149.456 437.077 148.533C437.128 148.473 437.18 148.412 437.231 148.352C438.087 147.342 438.927 146.35 439.204 146.004L441.546 147.878C441.235 148.267 440.356 149.305 439.52 150.291L439.417 150.412C438.598 151.379 437.843 152.269 437.63 152.535C435.415 155.301 431.33 155.372 428.571 153.165C425.813 150.959 424.987 146.96 427.203 144.193C427.56 143.748 428.411 142.744 429.222 141.789L429.282 141.719C430.092 140.766 430.849 139.874 431.119 139.537L433.462 141.411C433.164 141.783 432.392 142.692 431.618 143.603C431.582 143.646 431.546 143.688 431.51 143.73C430.68 144.708 429.867 145.665 429.545 146.067Z" fill="#002A16"/>
<path d="M439.683 139.568C442.525 141.841 443.38 145.492 441.594 147.722C439.808 149.953 436.057 149.918 433.215 147.645C430.374 145.372 429.518 141.722 431.304 139.491C433.09 137.261 436.842 137.295 439.683 139.568Z" fill="#ECFFEE"/>
<path fill-rule="evenodd" clip-rule="evenodd" d="M439.251 145.848C439.605 145.406 439.915 143.595 437.808 141.91C435.701 140.225 434.001 140.924 433.647 141.365C433.293 141.807 432.984 143.618 435.09 145.304C437.197 146.989 438.898 146.29 439.251 145.848ZM441.594 147.722C443.38 145.492 442.525 141.841 439.683 139.568C436.842 137.295 433.09 137.261 431.304 139.491C429.518 141.722 430.374 145.372 433.215 147.645C436.057 149.918 439.808 149.953 441.594 147.722Z" fill="#002A16"/>
<path fill-rule="evenodd" clip-rule="evenodd" d="M431.545 296.473C430.549 295.229 430.74 293.082 432.447 291.716C434.153 290.351 436.291 290.636 437.287 291.879C437.528 292.18 438.295 293.085 439.077 294.007C439.128 294.067 439.18 294.128 439.231 294.188C440.087 295.198 440.927 296.19 441.204 296.536L443.546 294.662C443.235 294.273 442.356 293.235 441.52 292.249L441.417 292.128C440.598 291.162 439.843 290.271 439.63 290.006C437.415 287.239 433.33 287.168 430.571 289.375C427.813 291.581 426.987 295.58 429.203 298.347C429.56 298.792 430.411 299.796 431.222 300.751L431.282 300.821C432.092 301.774 432.849 302.666 433.119 303.003L435.462 301.129C435.164 300.757 434.392 299.848 433.618 298.937C433.582 298.894 433.546 298.852 433.51 298.81C432.68 297.832 431.867 296.875 431.545 296.473Z" fill="#002A16"/>
<path d="M441.683 302.972C444.525 300.699 445.38 297.048 443.594 294.818C441.808 292.588 438.057 292.622 435.215 294.895C432.374 297.168 431.518 300.818 433.304 303.049C435.09 305.279 438.842 305.245 441.683 302.972Z" fill="#ECFFEE"/>
<path fill-rule="evenodd" clip-rule="evenodd" d="M441.251 296.692C441.605 297.134 441.915 298.945 439.808 300.63C437.701 302.315 436.001 301.617 435.647 301.175C435.293 300.733 434.984 298.922 437.09 297.237C439.197 295.551 440.898 296.25 441.251 296.692ZM443.594 294.818C445.38 297.048 444.525 300.699 441.683 302.972C438.842 305.245 435.09 305.279 433.304 303.049C431.518 300.818 432.374 297.168 435.215 294.895C438.057 292.622 441.808 292.588 443.594 294.818Z" fill="#002A16"/>
<path fill-rule="evenodd" clip-rule="evenodd" d="M411.481 86.8C411.927 87.3984 412.737 87.9953 413.866 88.3762C414.998 88.7575 416.059 88.7899 416.834 88.5854C417.595 88.3849 417.965 88.0052 418.105 87.5912C418.212 87.2747 418.722 85.9435 419.24 84.5927C419.278 84.4938 419.316 84.3948 419.354 84.2961C419.93 82.7932 420.484 81.3443 420.597 81.0115L423.44 81.9698C423.302 82.3787 422.712 83.9183 422.155 85.3692L422.106 85.4983C421.547 86.9556 421.034 88.294 420.948 88.5495C420.404 90.1603 419.059 91.1009 417.598 91.486C416.153 91.8672 414.485 91.7507 412.907 91.2187C411.327 90.6861 409.959 89.7781 409.075 88.5937C408.176 87.3877 407.764 85.8503 408.293 84.2835C408.45 83.8166 409.028 82.3123 409.574 80.8921L409.597 80.8333C410.155 79.3822 410.674 78.0314 410.784 77.704L413.627 78.6619C413.496 79.0509 412.977 80.4016 412.459 81.7491C412.431 81.822 412.403 81.8949 412.375 81.9677C411.81 83.4378 411.267 84.8524 411.135 85.2418C410.981 85.7 411.05 86.2232 411.481 86.8Z" fill="#002A16"/>
<path d="M418.513 75.7338C421.961 76.8963 424.167 79.5865 423.439 81.7424C422.712 83.8984 419.326 84.7037 415.878 83.5412C412.429 82.3788 410.224 79.6886 410.951 77.5327C411.679 75.3767 415.064 74.5714 418.513 75.7338Z" fill="#ECFFEE"/>
<path fill-rule="evenodd" clip-rule="evenodd" d="M420.222 80.2677C419.74 79.6799 418.83 79.0067 417.553 78.5764C416.277 78.1461 415.145 78.1311 414.405 78.3071C414.118 78.3755 413.947 78.4524 413.851 78.5101C413.893 78.6145 413.982 78.7789 414.169 79.0074C414.651 79.5952 415.561 80.2684 416.837 80.6987C418.114 81.129 419.245 81.144 419.985 80.968C420.273 80.8996 420.443 80.8227 420.54 80.765C420.498 80.6606 420.409 80.4962 420.222 80.2677ZM420.575 80.9036C420.575 80.9036 420.573 80.8964 420.574 80.8825C420.576 80.8967 420.575 80.9036 420.575 80.9036ZM420.638 80.6923C420.646 80.6805 420.652 80.6759 420.652 80.6759C420.652 80.6759 420.648 80.6822 420.638 80.6923ZM413.816 78.3715C413.816 78.3715 413.817 78.3787 413.816 78.3926C413.814 78.3784 413.816 78.3715 413.816 78.3715ZM413.752 78.5828C413.745 78.5946 413.739 78.5992 413.739 78.5992C413.739 78.5992 413.742 78.5929 413.752 78.5828ZM423.439 81.7424C424.167 79.5865 421.961 76.8963 418.513 75.7338C415.064 74.5714 411.679 75.3767 410.951 77.5327C410.224 79.6886 412.429 82.3788 415.878 83.5412C419.326 84.7037 422.712 83.8984 423.439 81.7424Z" fill="#002A16"/>
<path fill-rule="evenodd" clip-rule="evenodd" d="M412.422 360.444C412.869 359.846 413.678 359.249 414.808 358.868C415.939 358.486 417 358.454 417.776 358.659C418.536 358.859 418.906 359.239 419.046 359.653C419.153 359.969 419.663 361.3 420.181 362.651C420.219 362.75 420.257 362.849 420.295 362.948C420.871 364.451 421.426 365.9 421.538 366.233L424.381 365.274C424.243 364.865 423.653 363.326 423.097 361.875L423.047 361.746C422.488 360.288 421.975 358.95 421.889 358.694C421.345 357.084 420.001 356.143 418.54 355.758C417.094 355.377 415.427 355.493 413.849 356.025C412.269 356.558 410.9 357.466 410.017 358.65C409.117 359.856 408.705 361.394 409.234 362.96C409.391 363.427 409.97 364.932 410.516 366.352L410.538 366.411C411.096 367.862 411.615 369.213 411.726 369.54L414.569 368.582C414.438 368.193 413.918 366.842 413.4 365.495C413.372 365.422 413.344 365.349 413.316 365.276C412.751 363.806 412.208 362.392 412.077 362.002C411.922 361.544 411.992 361.021 412.422 360.444Z" fill="#002A16"/>
<path d="M419.454 371.51C422.902 370.348 425.108 367.658 424.381 365.502C423.653 363.346 420.268 362.54 416.819 363.703C413.371 364.865 411.165 367.555 411.893 369.711C412.62 371.867 416.005 372.673 419.454 371.51Z" fill="#ECFFEE"/>
<path fill-rule="evenodd" clip-rule="evenodd" d="M421.163 366.976C420.681 367.564 419.771 368.237 418.495 368.668C417.218 369.098 416.086 369.113 415.347 368.937C415.059 368.869 414.889 368.792 414.792 368.734C414.834 368.63 414.923 368.465 415.11 368.237C415.592 367.649 416.502 366.976 417.779 366.545C419.055 366.115 420.187 366.1 420.927 366.276C421.214 366.344 421.385 366.421 421.481 366.479C421.439 366.583 421.35 366.748 421.163 366.976ZM421.516 366.34C421.516 366.34 421.514 366.348 421.516 366.362C421.517 366.347 421.516 366.34 421.516 366.34ZM421.58 366.552C421.587 366.563 421.593 366.568 421.593 366.568C421.593 366.568 421.59 366.562 421.58 366.552ZM414.757 368.872C414.757 368.872 414.759 368.865 414.758 368.851C414.756 368.866 414.757 368.872 414.757 368.872ZM414.694 368.661C414.686 368.649 414.68 368.645 414.68 368.645C414.68 368.645 414.683 368.651 414.694 368.661ZM424.381 365.502C425.108 367.658 422.902 370.348 419.454 371.51C416.005 372.673 412.62 371.867 411.893 369.711C411.165 367.555 413.371 364.865 416.819 363.703C420.268 362.54 423.653 363.346 424.381 365.502Z" fill="#002A16"/>
</svg>
