<svg width="544" height="202" viewBox="0 0 544 202" fill="none" xmlns="http://www.w3.org/2000/svg">
<g clip-path="url(#clip0_0_164)">
<mask id="mask0_0_164" style="mask-type:alpha" maskUnits="userSpaceOnUse" x="-102" y="-177" width="667" height="578">
<rect x="110.5" y="-12.5" width="75" height="203" rx="23.5" stroke="#60706A"/>
<rect x="192.5" y="-176.5" width="75" height="203" rx="23.5" stroke="#60706A"/>
<rect x="274.5" y="-176.5" width="75" height="203" rx="23.5" stroke="#60706A"/>
<rect x="356.5" y="-176.5" width="75" height="203" rx="23.5" stroke="#60706A"/>
<rect x="356.5" y="117.5" width="75" height="203" rx="23.5" stroke="#60706A"/>
<rect x="274.5" y="117.5" width="75" height="203" rx="23.5" stroke="#60706A"/>
<rect x="192.5" y="117.5" width="75" height="203" rx="23.5" stroke="#60706A"/>
<rect x="110.5" y="197.5" width="75" height="203" rx="23.5" stroke="#60706A"/>
<rect x="-101.5" y="26.5" width="75" height="203" rx="23.5" transform="rotate(-90 -101.5 26.5)" stroke="#60706A"/>
<rect x="-101.5" y="108.5" width="75" height="203" rx="23.5" transform="rotate(-90 -101.5 108.5)" stroke="#60706A"/>
<rect x="192.5" y="108.5" width="75" height="239" rx="23.5" transform="rotate(-90 192.5 108.5)" stroke="#60706A"/>
<rect x="-101.5" y="190.5" width="75" height="203" rx="23.5" transform="rotate(-90 -101.5 190.5)" stroke="#60706A"/>
<rect x="-101.5" y="272.5" width="75" height="203" rx="23.5" transform="rotate(-90 -101.5 272.5)" stroke="#60706A"/>
<rect x="436.5" y="33.5" width="128" height="75" rx="23.5" stroke="#60706A"/>
<rect x="436.5" y="115.5" width="128" height="75" rx="23.5" stroke="#60706A"/>
<rect x="436.5" y="197.5" width="128" height="75" rx="23.5" stroke="#60706A"/>
<rect x="436.5" y="-48.5" width="128" height="75" rx="23.5" stroke="#60706A"/>
</mask>
<g mask="url(#mask0_0_164)">
<g opacity="0.25" filter="url(#filter0_d_0_164)">
<rect x="46" y="20" width="452" height="163" rx="81.5" fill="url(#paint0_radial_0_164)"/>
</g>
</g>
</g>
<defs>
<filter id="filter0_d_0_164" x="27" y="1" width="490" height="201" filterUnits="userSpaceOnUse" color-interpolation-filters="sRGB">
<feFlood flood-opacity="0" result="BackgroundImageFix"/>
<feColorMatrix in="SourceAlpha" type="matrix" values="0 0 0 0 0 0 0 0 0 0 0 0 0 0 0 0 0 0 127 0" result="hardAlpha"/>
<feMorphology radius="9" operator="dilate" in="SourceAlpha" result="effect1_dropShadow_0_164"/>
<feOffset/>
<feGaussianBlur stdDeviation="5"/>
<feComposite in2="hardAlpha" operator="out"/>
<feColorMatrix type="matrix" values="0 0 0 0 0.376471 0 0 0 0 0.439216 0 0 0 0 0.415686 0 0 0 1 0"/>
<feBlend mode="normal" in2="BackgroundImageFix" result="effect1_dropShadow_0_164"/>
<feBlend mode="normal" in="SourceGraphic" in2="effect1_dropShadow_0_164" result="shape"/>
</filter>
<radialGradient id="paint0_radial_0_164" cx="0" cy="0" r="1" gradientUnits="userSpaceOnUse" gradientTransform="translate(272 101.5) rotate(90) scale(81.5 226)">
<stop/>
<stop offset="1"/>
</radialGradient>
<clipPath id="clip0_0_164">
<rect width="544" height="201.185" fill="white"/>
</clipPath>
</defs>
</svg>
