<svg width="22" height="22" viewBox="0 0 22 22" fill="none" xmlns="http://www.w3.org/2000/svg">
<path d="M16.8192 14.2398V5.90784C16.8192 4.94309 16.0298 4.15375 15.0651 4.15375H10.2414" stroke="#05AA58" stroke-width="1.31557" stroke-linecap="round" stroke-linejoin="round"/>
<path d="M12.4346 1.96112L9.80348 4.15373L12.4346 6.34634" stroke="#05AA58" stroke-width="1.31557" stroke-linecap="round" stroke-linejoin="round"/>
<path d="M16.8193 19.5023C18.2724 19.5023 19.4504 18.3243 19.4504 16.8711C19.4504 15.418 18.2724 14.24 16.8193 14.24C15.3662 14.24 14.1882 15.418 14.1882 16.8711C14.1882 18.3243 15.3662 19.5023 16.8193 19.5023Z" stroke="#05AA58" stroke-width="1.31557" stroke-linecap="round" stroke-linejoin="round"/>
<path d="M4.54087 7.22345V15.5554C4.54087 16.5201 5.33021 17.3095 6.29496 17.3095H11.1187" stroke="#05AA58" stroke-width="1.31557" stroke-linecap="round" stroke-linejoin="round"/>
<path d="M8.92557 19.502L11.5567 17.3094L8.92557 15.1168" stroke="#05AA58" stroke-width="1.31557" stroke-linecap="round" stroke-linejoin="round"/>
<path d="M4.54097 7.22339C5.9941 7.22339 7.1721 6.04539 7.1721 4.59225C7.1721 3.13912 5.9941 1.96112 4.54097 1.96112C3.08783 1.96112 1.90984 3.13912 1.90984 4.59225C1.90984 6.04539 3.08783 7.22339 4.54097 7.22339Z" stroke="#05AA58" stroke-width="1.31557" stroke-linecap="round" stroke-linejoin="round"/>
</svg>
