<svg width="22" height="22" viewBox="0 0 22 22" fill="none" xmlns="http://www.w3.org/2000/svg">
<path d="M7.54083 10.7314L9.65451 12.8538L13.8906 8.60895" stroke="#05AA58" stroke-width="1.31557" stroke-linecap="round" stroke-linejoin="round"/>
<path d="M9.61919 2.35562C10.2243 1.83817 11.2154 1.83817 11.8293 2.35562L13.2151 3.5484C13.4782 3.77643 13.9693 3.96061 14.3201 3.96061H15.8111C16.7408 3.96061 17.5038 4.72364 17.5038 5.65331V7.14428C17.5038 7.48633 17.688 7.98625 17.916 8.24936L19.1088 9.63509C19.6263 10.2403 19.6263 11.2313 19.1088 11.8452L17.916 13.231C17.688 13.4941 17.5038 13.9852 17.5038 14.336V15.827C17.5038 16.7567 16.7408 17.5197 15.8111 17.5197H14.3201C13.9781 17.5197 13.4782 17.7039 13.2151 17.9319L11.8293 19.1247C11.2242 19.6422 10.2331 19.6422 9.61919 19.1247L8.23346 17.9319C7.97034 17.7039 7.4792 17.5197 7.12838 17.5197H5.61109C4.68143 17.5197 3.9184 16.7567 3.9184 15.827V14.3273C3.9184 13.9852 3.73422 13.4941 3.51496 13.231L2.33095 11.8365C1.82226 11.2313 1.82226 10.249 2.33095 9.64386L3.51496 8.24936C3.73422 7.98625 3.9184 7.4951 3.9184 7.15305V5.64454C3.9184 4.71487 4.68143 3.95184 5.61109 3.95184H7.12838C7.47043 3.95184 7.97034 3.76766 8.23346 3.53963L9.61919 2.35562Z" stroke="#05AA58" stroke-width="1.31557" stroke-linecap="round" stroke-linejoin="round"/>
</svg>
