<svg width="20" height="19" viewBox="0 0 20 19" fill="none" xmlns="http://www.w3.org/2000/svg">
<path fill-rule="evenodd" clip-rule="evenodd" d="M2.34005 12.6763C2.70333 12.6763 2.99783 12.9708 2.99783 13.3341C2.99783 14.352 3.96463 15.2548 5.47988 15.2548C6.98347 15.2548 7.95316 14.3456 7.95316 13.3341C7.95316 12.9708 8.24765 12.6763 8.61094 12.6763C8.97422 12.6763 9.26872 12.9708 9.26872 13.3341V15.1145C9.26872 17.0691 7.48224 18.4999 5.47988 18.4999C3.48006 18.4999 1.68227 17.0713 1.68227 15.1145V13.3341C1.68227 12.9708 1.97677 12.6763 2.34005 12.6763ZM3.22021 15.9614C3.59763 16.6555 4.42629 17.1844 5.47988 17.1844C6.53409 17.1844 7.36036 16.6542 7.73461 15.9575C7.08594 16.3539 6.2929 16.5704 5.47988 16.5704C4.66478 16.5704 3.87014 16.356 3.22021 15.9614Z" fill="#05AA58"/>
<path fill-rule="evenodd" clip-rule="evenodd" d="M5.4607 8.86012C4.74293 8.86012 4.11895 9.10611 3.67549 9.49499L3.67496 9.49546C3.23641 9.87918 2.98748 10.3816 2.98748 10.9212C2.98748 11.232 3.07332 11.5183 3.22516 11.7725C3.60006 12.3796 4.42256 12.8419 5.46948 12.8419C6.52061 12.8419 7.33997 12.3855 7.71301 11.7738C7.86537 11.5192 7.95153 11.2325 7.95153 10.9212C7.95153 10.38 7.70174 9.87508 7.25854 9.50575L7.25025 9.49884L7.2503 9.49877C6.80146 9.11207 6.17383 8.86012 5.4607 8.86012ZM2.80811 8.50586C3.50482 7.89491 4.44191 7.54456 5.4607 7.54456C6.48211 7.54456 7.41401 7.90507 8.10492 8.49858C8.81701 9.09388 9.26709 9.95567 9.26709 10.9212C9.26709 11.4862 9.10805 12.0057 8.84007 12.4523L8.83803 12.4558L8.83802 12.4558C8.17567 13.5447 6.8731 14.1575 5.46948 14.1575C4.06238 14.1575 2.76338 13.5336 2.10252 12.4583L2.09885 12.4524L2.09888 12.4523C1.83087 12.0057 1.67191 11.4861 1.67191 10.9212C1.67191 9.95219 2.12458 9.10396 2.80865 8.50539L3.2418 9.00043L2.80811 8.50586Z" fill="#05AA58"/>
<path fill-rule="evenodd" clip-rule="evenodd" d="M5.47988 8.85194C4.01665 8.85194 2.99783 9.8604 2.99783 10.9218V13.3336C2.99783 14.343 3.97372 15.2544 5.47988 15.2544C6.98507 15.2544 7.95316 14.3526 7.95316 13.3336V10.9218C7.95316 10.3806 7.70293 9.87072 7.26759 9.48895C6.81888 9.10318 6.19201 8.85194 5.47988 8.85194ZM1.68227 10.9218C1.68227 8.96608 3.47003 7.53638 5.47988 7.53638C6.5033 7.53638 7.43686 7.89831 8.12817 8.4939L8.132 8.4972L8.13199 8.49721C8.81808 9.09755 9.26872 9.95519 9.26872 10.9218V13.3336C9.26872 15.3317 7.43025 16.5699 5.47988 16.5699C3.53049 16.5699 1.68227 15.3237 1.68227 13.3336V10.9218Z" fill="#05AA58"/>
<path fill-rule="evenodd" clip-rule="evenodd" d="M15.7754 7.93092C15.4605 7.93092 15.1836 8.05302 14.9838 8.25823L14.972 8.27004C14.7386 8.49781 14.6083 8.82213 14.6411 9.16657L14.6418 9.1743L14.6418 9.17431C14.6882 9.73122 15.2237 10.2112 15.8807 10.2112H17.5846C17.7263 10.2021 17.8189 10.0912 17.8189 9.97445V8.16769C17.8189 8.05093 17.7263 7.94007 17.5846 7.93092H15.7754ZM14.047 7.33449C14.4957 6.87684 15.1109 6.61536 15.7754 6.61536H17.5997C17.6075 6.61536 17.6153 6.6155 17.6232 6.61578C18.459 6.64563 19.1345 7.32198 19.1345 8.16769V9.97445C19.1345 10.8202 18.459 11.4965 17.6232 11.5264C17.6153 11.5266 17.6075 11.5268 17.5997 11.5268H15.8807C14.6444 11.5268 13.4445 10.6228 13.3311 9.28743C13.2603 8.53126 13.5482 7.82484 14.047 7.33449Z" fill="#05AA58"/>
<path fill-rule="evenodd" clip-rule="evenodd" d="M5.32017 2.27406C5.10595 2.27406 4.90268 2.28936 4.70979 2.31903L4.69167 2.32156C3.7205 2.44344 2.95705 2.85924 2.4343 3.47255C1.9102 4.08745 1.59273 4.94279 1.59273 6.0015V7.75559C1.59273 8.11887 1.29824 8.41337 0.934952 8.41337C0.571668 8.41337 0.277168 8.11887 0.277168 7.75559V6.0015C0.277168 4.67465 0.678881 3.50402 1.43307 2.61917C2.18682 1.73485 3.25747 1.17767 4.51885 1.01737C4.77915 0.977824 5.04644 0.958496 5.32017 0.958496H13.2136C13.4501 0.958496 13.7054 0.96705 13.963 1.00858C15.2352 1.15999 16.3179 1.71355 17.0816 2.59857C17.8473 3.48581 18.2566 4.66427 18.2566 6.0015V7.27323C18.2566 7.63651 17.9621 7.93101 17.5988 7.93101H15.7745C15.4596 7.93101 15.1827 8.05311 14.9829 8.25831L14.9711 8.27012C14.7377 8.4979 14.6074 8.82221 14.6402 9.16665L14.6409 9.17439L14.6409 9.17439C14.6873 9.73131 15.2228 10.2113 15.8798 10.2113H17.5988C17.9621 10.2113 18.2566 10.5058 18.2566 10.8691V12.1408C18.2566 13.6059 17.7654 14.8778 16.858 15.7852C15.9506 16.6926 14.6786 17.1838 13.2136 17.1838H11.021C10.6577 17.1838 10.3632 16.8893 10.3632 16.526C10.3632 16.1628 10.6577 15.8683 11.021 15.8683H13.2136C14.3797 15.8683 15.3003 15.4824 15.9277 14.855C16.5552 14.2275 16.941 13.3069 16.941 12.1408V11.5269H15.8798C14.6435 11.5269 13.4436 10.6229 13.3302 9.28751C13.2594 8.53134 13.5473 7.82491 14.0461 7.33457C14.4949 6.87692 15.11 6.61544 15.7745 6.61544H16.941V6.0015C16.941 4.93563 16.618 4.07495 16.0856 3.45807C15.5545 2.84258 14.7792 2.4279 13.7954 2.3135C13.7846 2.31225 13.7739 2.31073 13.7632 2.30895C13.6054 2.28266 13.4281 2.27406 13.2136 2.27406H5.32017Z" fill="#05AA58"/>
</svg>
