<svg width="39" height="40" viewBox="0 0 39 40" fill="none" xmlns="http://www.w3.org/2000/svg">
<circle cx="19.4286" cy="20" r="19.0422" fill="#002A16" stroke="white" stroke-width="0.772727"/>
<path d="M12.4678 9.67689C13.0715 9.07352 14.0503 9.07352 14.654 9.67689L18.2533 13.2742C18.857 13.8778 18.857 14.8561 18.2533 15.4595L14.654 19.0568C14.0503 19.6602 13.0715 19.6602 12.4678 19.0568L8.86846 15.4595C8.26478 14.8561 8.26478 13.8778 8.86846 13.2742L12.4678 9.67689Z" fill="#A8FFD4"/>
<path d="M18.4989 6.15602C19.1026 5.55265 20.0815 5.55265 20.6852 6.15602L23.0299 8.49949C23.6336 9.10287 23.6336 10.0812 23.0299 10.6846L20.6852 13.028C20.0815 13.6315 19.1026 13.6315 18.4989 13.028L16.1542 10.6846C15.5505 10.0812 15.5505 9.10287 16.1542 8.49949L18.4989 6.15602Z" fill="#A8FFD4"/>
<path opacity="0.5" d="M24.5313 9.67689C25.135 9.07352 26.1138 9.07352 26.7176 9.67689L30.3168 13.2742C30.9207 13.8778 30.9207 14.8561 30.3168 15.4595L26.7176 19.0568C26.1138 19.6602 25.135 19.6602 24.5313 19.0568L20.932 15.4595C20.3283 14.8561 20.3283 13.8778 20.932 13.2742L24.5313 9.67689Z" fill="#A8FFD4"/>
<path opacity="0.9" d="M29.2983 16.9695C29.902 16.3661 30.881 16.3661 31.4846 16.9695L33.8192 19.3028C34.4228 19.9063 34.4228 20.8846 33.8192 21.488L31.4846 23.8213C30.881 24.4246 29.902 24.4246 29.2983 23.8213L26.9638 21.488C26.36 20.8846 26.36 19.9063 26.9638 19.3028L29.2983 16.9695Z" fill="#A8FFD4"/>
<path d="M24.5313 21.7341C25.135 21.1308 26.1138 21.1308 26.7176 21.7341L30.3168 25.3315C30.9207 25.9349 30.9207 26.9132 30.3168 27.5166L26.7176 31.1141C26.1138 31.7174 25.135 31.7174 24.5313 31.1141L20.932 27.5166C20.3283 26.9132 20.3283 25.9349 20.932 25.3315L24.5313 21.7341Z" fill="#A8FFD4"/>
<path opacity="0.7" d="M18.4997 27.7627C19.1034 27.1593 20.0821 27.1593 20.686 27.7627L23.3687 30.444C23.9724 31.0474 23.9724 32.0257 23.3687 32.6291L20.686 35.3104C20.0821 35.9138 19.1034 35.9138 18.4997 35.3104L15.817 32.6291C15.2133 32.0257 15.2133 31.0474 15.817 30.444L18.4997 27.7627Z" fill="#A8FFD4"/>
<path d="M8.17677 17.4453C8.78045 16.842 9.75938 16.842 10.3631 17.4453L12.2216 19.3029C12.8252 19.9063 12.8252 20.8846 12.2216 21.4879L10.3631 23.3455C9.75938 23.9489 8.78045 23.9489 8.17677 23.3455L6.31831 21.4879C5.71459 20.8846 5.71459 19.9063 6.3183 19.3029L8.17677 17.4453Z" fill="#A8FFD4"/>
<path d="M18.4996 15.7055C19.1033 15.1021 20.0822 15.1021 20.6859 15.7055L24.2851 19.3028C24.8889 19.9063 24.8889 20.8847 24.2851 21.488L20.6859 25.0854C20.0822 25.6887 19.1033 25.6887 18.4996 25.0854L14.9002 21.488C14.2965 20.8847 14.2965 19.9063 14.9002 19.3028L18.4996 15.7055Z" fill="#ECFFEE"/>
<path d="M12.4678 21.7341C13.0715 21.1308 14.0503 21.1308 14.6541 21.7341L18.2533 25.3315C18.8572 25.9349 18.8572 26.9132 18.2533 27.5166L14.6541 31.1141C14.0503 31.7174 13.0715 31.7174 12.4678 31.1141L8.86846 27.5166C8.26478 26.9132 8.26478 25.9349 8.86846 25.3315L12.4678 21.7341Z" fill="#A8FFD4"/>
</svg>
